<svg xmlns="http://www.w3.org/2000/svg" width="622.006" height="704.45" viewBox="0 0 622.006 704.45">
  <path id="Differenzmenge_4" d="M440.649,704.415h-.726l-14.481-35.833-47.5,19.2.89,2.213,44.929-18.156.047-.023a.42.42,0,0,1,.129-.023.332.332,0,0,1,.316.211l13.1,32.415h-.726l-12.865-31.853-44.671,18.051.129.316,44.039-17.794a.635.635,0,0,1,.129-.023.344.344,0,0,1,.316.211l12.561,31.08h-.726l-12.327-30.518-52.116,21.06,1.943,4.811,8.827-3.559a.493.493,0,0,1,.433-.281.316.316,0,0,1,.176.035l37.566-15.183a.637.637,0,0,1,.129-.023.344.344,0,0,1,.316.211l9.482,23.459h-.726l-9.248-22.886-37.249,15.054a.444.444,0,0,1-.258.246.469.469,0,0,1-.176.035.427.427,0,0,1-.176-.035l-8.815,3.559.644,1.58a.341.341,0,0,1-.187.445h0l-4.975,2.013h-1.814l6.216-2.505-.644-1.58-2.177-5.4h0v-.035h0a.357.357,0,0,1,0-.269.365.365,0,0,1,.187-.187l2.646-1.065-.152-.363a.589.589,0,0,1-.14.105l-27.943,11.3h-1.8l1.85-.749-.035-.082-.164.07a.328.328,0,0,1-.433-.187l-.574-1.416-.164-.4-4.577,1.85.152.363.538-.222a.636.636,0,0,1,.129-.023.344.344,0,0,1,.269.14h.059a.313.313,0,0,1,.269.141l.55-.222a.328.328,0,0,1,.433.187h0l.222.55h-3.254l-.234-.574-1.124.457.047.117h-1.276L331.406,693.4,304.13,704.427h-1.8l29.137-11.776,35.95-14.528.047-.023a.444.444,0,0,1,.258-.246.456.456,0,0,1,.351,0l6.275-2.529,1.393-.562a.47.47,0,0,1,.609-.246l34.885-14.094a.47.47,0,0,1,.609-.246l8.815-3.559-2.259-5.6a.328.328,0,0,1,0-.258.366.366,0,0,1,.187-.187l11.355-4.589a.636.636,0,0,1,.129-.023.344.344,0,0,1,.316.211l23,56.94,3.1,1.323h-1.721l-1.744-.737a.354.354,0,0,1-.211-.2l-22.933-56.764-10.723,4.331,2.259,5.6a.345.345,0,0,1-.187.445L412.1,660.8a.474.474,0,0,1-.609.246L376.6,675.138a.456.456,0,0,1-.421.281.427.427,0,0,1-.176-.035l-7.668,3.1a.444.444,0,0,1-.258.246c-.012,0-.023.012-.047.012l5.806,14.387,4.823-1.943-.234-.585a.169.169,0,0,0-.023-.035h0v-.023a.058.058,0,0,0-.012-.035l-1.112-2.739a.172.172,0,0,1-.023-.047.328.328,0,0,1,0-.258.365.365,0,0,1,.187-.187l48.125-19.444a.636.636,0,0,1,.129-.023.344.344,0,0,1,.316.211l14.715,36.407h0Zm-73.363-25.543h0l-35.33,14.27,4.355,10.77a.541.541,0,0,1,.14-.117l1.756-.7a.635.635,0,0,1,.129-.023.243.243,0,0,1,.117-.07l5.2-2.1,20.626-8.335,5.209-2.107.234-.094,1.744-.7a.636.636,0,0,1,.129-.023h.047l-4.355-10.77h0Zm-2.728,16.681h0l-19.058,7.7.07.176,19.058-7.7-.07-.176Zm.07-1.182h0l-20.006,8.077.059.129,20.006-8.077-.059-.129Zm-.89-.854h0l-19.058,7.7.07.176,19.058-7.691-.07-.176Zm5.678-2.294h0l-4.577,1.85.2.492.094.234.3.761.094.234.035.094a.328.328,0,0,1-.187.433l-.164.059.035.082,3.114-1.253-.41-1.018a.169.169,0,0,0-.023-.035.328.328,0,0,1,0-.258.365.365,0,0,1,.187-.187l.55-.222a3.78,3.78,0,0,1,.34-.691l.538-.222-.152-.363h0Zm1.99-.8h0l-1.124.457.328.819a.345.345,0,0,1-.187.445l-.55.222a.329.329,0,0,1-.14.316v.023a.253.253,0,0,1,0,.258.365.365,0,0,1-.187.187l-.538.222.2.515,3.067-1.241-.89-2.213h0ZM292.1,704.438h-.726L283.6,685.193l-11.671,4.718,5.865,14.528h-.726l-5.771-14.27-7.96,3.219a25.794,25.794,0,0,1-3.922,1.229l.691,9.822h-.679l-.679-9.681a25.9,25.9,0,0,1-12.69-.644l-2.482,10.325h-.691l2.529-10.536a25.878,25.878,0,0,1-10.676-6.883L223.7,704.438h-.8L234.267,686.5a25.592,25.592,0,0,1-4.565-7.41h0s0-.035-.012-.047l-1.475-3.652-19.7,17.524,4.659,11.519h-.726l-4.636-11.472a.058.058,0,0,0-.012-.035l-8.37-20.708-4.963-12.3L189.5,647.628l-4.963-12.3-4.963-12.3-4.963-12.292-4.963-12.3-4.963-12.3-4.975-12.3-4.963-12.292L134.529,511.5s0-.035-.012-.047a.322.322,0,0,1,.2-.386l47.305-19.1a.637.637,0,0,1,.129-.023.344.344,0,0,1,.316.211l2.259,5.6,7.656-3.09-2.259-5.6a.331.331,0,0,1,.187-.445h0l59.6-24.08a.636.636,0,0,1,.129-.023.344.344,0,0,1,.316.211l61.692,152.709,80.095-32.356a.637.637,0,0,1,.129-.023.344.344,0,0,1,.316.211l4.647,11.507,10.735-4.331-4.647-11.507a.328.328,0,0,1,0-.258.308.308,0,0,1,.187-.176l52.2-21.083-4.238-10.489-132.6,53.556a.635.635,0,0,1-.129.023.344.344,0,0,1-.316-.211l-57.337-141.9a.328.328,0,0,1,0-.258.308.308,0,0,1,.187-.176l68.751-27.779-.983-2.447L134.073,508.5a.47.47,0,0,1-.609.246l-10.735,4.343,77.308,191.351h-.726L122.1,513.345l-2.212.89,76.84,190.216H196L119.253,514.492l-.316.129,76.7,189.818h-.726L118.316,514.867l-4.823,1.943L189.3,704.438h-.726l-75.7-187.371-4.109,1.662L183.8,704.438h-.726L.024,251.627a.328.328,0,0,1,0-.258.366.366,0,0,1,.187-.187L258.394,146.867l6.708-15.815a.389.389,0,0,1,.2-.211.421.421,0,0,1,.129-.023h.082a.065.065,0,0,1,.059.023.308.308,0,0,1,.176.187h0v.023l4.46,11.027L621.909,0V.726L282.45,137.889a.335.335,0,0,1-.2.4l-11.695,4.729,1.545,3.828L621.921,5.5v.726L272.359,147.464l2.774,6.86h0v.023h0v.023a.354.354,0,0,1-.2.4.416.416,0,0,1-.117.023.374.374,0,0,1-.164-.035l-9.939-4.214L2.681,256.415,108.4,518.074l4.109-1.662L79.416,434.491l-1.58.632a.636.636,0,0,1-.129.023.344.344,0,0,1-.316-.211c0-.012-.012-.035-.012-.047l-33.6-83.15a.167.167,0,0,0-.023-.047.328.328,0,0,1,0-.258.366.366,0,0,1,.187-.187l1.58-.632-33-81.687a.464.464,0,0,1-.258-.258.486.486,0,0,1,0-.363.464.464,0,0,1,.258-.258.457.457,0,0,1,.351,0l42.7-17.255a.444.444,0,0,1,.258-.246.457.457,0,0,1,.351,0l19.737-7.972a.444.444,0,0,1,.258-.246.457.457,0,0,1,.351,0l18.039-7.293-.632-1.58a.328.328,0,0,1,0-.258.365.365,0,0,1,.187-.187l83.244-33.632a.636.636,0,0,1,.129-.023.344.344,0,0,1,.316.211l.644,1.58,98.31-39.719a.444.444,0,0,1,.258-.246.466.466,0,0,1,.644.433.594.594,0,0,1-.035.2.459.459,0,0,1-.246.246.457.457,0,0,1-.351,0l-98.321,39.731,1.943,4.811,2.646-1.065,94.13-38.034,2.646-1.065-2.072-5.127-.749-1.838a.166.166,0,0,0-.023-.047.34.34,0,0,1,.187-.445l154.207-62.3a.324.324,0,0,1,.433.187h0l.632,1.58L573.516,41.557a.444.444,0,0,1,.258-.246.47.47,0,0,1,.176-.035.462.462,0,0,1,.468.468.485.485,0,0,1-.035.187l26.48,65.532a.464.464,0,0,1,.246.609l6.275,15.534,1.58-.644a.636.636,0,0,1,.129-.023.344.344,0,0,1,.316.211l12.526,31v1.791l-13.017-32.227-1.58.644-5.443,2.2a.636.636,0,0,1-.129.023.344.344,0,0,1-.316-.211l-1.065-2.646-.363.152a.589.589,0,0,1,.105.14l1.487,3.687a.635.635,0,0,1,.023.129.276.276,0,0,1,.07.105l20.217,50.044v1.791l-19.21-47.528-.176.07,19.386,47.972v2.493L601.482,132.2l-.129.059,20.568,50.911v2.47l-21.235-52.561-.176.07,21.423,53.018v1.8L599.761,133.1l-.187-.48-2.1-5.2a.482.482,0,0,1-.023-.105v-.023a.527.527,0,0,1-.07-.105l-.691-1.709a.169.169,0,0,0-.023-.035.307.307,0,0,1-.023-.176l-10.77,4.355,35.775,88.535.281-.117v.726H621.9l.035.094v1.8l-.784-1.943-36.02-89.167L561.505,71.092l-117.59,47.5a.637.637,0,0,1-.129.023.344.344,0,0,1-.316-.211h0v-.023h0l-4.46-11.062a.344.344,0,0,1-.14.117L281.689,170.947a.659.659,0,0,1-.117.023h0a.526.526,0,0,1-.105.07l-1.744.7a.636.636,0,0,1-.129.023h-.059l4.484,11.086a.328.328,0,0,1-.187.433l-1.112.457a.444.444,0,0,1-.258.246.47.47,0,0,1-.176.035.53.53,0,0,1-.187-.035l-82.424,33.3a.464.464,0,0,1-.609.246h0l-9.365,3.781-89.155,36.02-19.034,7.691a.444.444,0,0,1-.258.246.486.486,0,0,1-.363,0L42.073,280.963l1.1,2.716a.366.366,0,0,1,.187-.187L229.1,208.442a.636.636,0,0,1,.129-.023.344.344,0,0,1,.316.211l8.136,20.135c.784-.293,1.545-.609,2.271-.925h.012a.636.636,0,0,1,.129-.023.335.335,0,0,1,.3.2.33.33,0,0,1-.164.445c-.457.2-.866.375-1.288.538-.293.117-.62.246-1.007.4l13.591,33.632a.636.636,0,0,1,.023.129.291.291,0,0,1-.14.328l-122.951,49.67-4.882,11.4,34.346,85.011a.328.328,0,0,1,0,.258.366.366,0,0,1-.187.187l-33.656,13.6c.351.808.679,1.627.972,2.423a.348.348,0,0,1-.187.433h0a.659.659,0,0,1-.117.023.343.343,0,0,1-.316-.222c-.3-.831-.632-1.639-.972-2.411l-20.111,8.124a.659.659,0,0,1-.117.023.278.278,0,0,1-.14-.035l27.3,67.569,46.685-18.859-7.047-17.431-4.975-12.315a17.694,17.694,0,0,1,9.763-23l38.35-15.487a17.438,17.438,0,0,1,6.591-1.288,17.71,17.71,0,0,1,16.412,11.051l4.975,12.315,7.035,17.419,77.5-31.314,11.051-4.46a.5.5,0,0,1,.246-.246.466.466,0,0,1,.644.433.486.486,0,0,1-.035.187l3.09,7.656L529.5,347.923l-3.219-7.96-7.036-17.431-24.033,9.716a.345.345,0,0,1-.433-.211.331.331,0,0,1,.176-.41L519,321.911a11.831,11.831,0,0,1,6.649-15.066l96.308-38.912v.726l-96.05,38.806a11.149,11.149,0,0,0-6.275,14.188l102.325-41.347v.726L519.878,322.274l6.907,17.115,11.039-4.46a.637.637,0,0,1,.129-.023.344.344,0,0,1,.316.211l3.219,7.96,80.469-32.508v.726l-80.223,32.4,1.124,2.763a.328.328,0,0,1-.187.433l-11.039,4.46,7.036,17.431a10.9,10.9,0,0,0,1.826,3.02l20.147-8.136-8.475-20.978a.343.343,0,0,1,.176-.445.3.3,0,0,1,.141-.023.344.344,0,0,1,.316.211l8.475,20.978L589.027,352.2l-8.475-20.978a.319.319,0,0,1,.187-.433h0a.66.66,0,0,1,.117-.023.344.344,0,0,1,.316.211l8.475,20.978L617.4,340.735l-8.475-20.978a.328.328,0,0,1,0-.258.308.308,0,0,1,.187-.176.416.416,0,0,1,.117-.023.344.344,0,0,1,.316.211l8.475,20.966,3.933-1.592v.726L561.2,364.16l-20.229,8.171a11.145,11.145,0,0,0,12.186,2.6l68.786-27.791v.726L553.416,375.55A11.66,11.66,0,0,1,549,376.4a11.839,11.839,0,0,1-8.709-3.816l-26.4,10.664a.636.636,0,0,1-.129.023.344.344,0,0,1-.316-.211.328.328,0,0,1,0-.258.365.365,0,0,1,.187-.187l26.187-10.583a11.5,11.5,0,0,1-1.791-3.032.058.058,0,0,0-.012-.035l-7.153-17.7-1.112-2.763L340.947,424.8l1,2.458a.489.489,0,0,1,.258.62.478.478,0,0,1-.62.258l-11.051,4.46-68.751,27.779,57.08,141.272,59.292-23.951,73-29.5A51.863,51.863,0,0,1,479.936,481a.345.345,0,0,1,.445.187.043.043,0,0,0,.012.035l19.07,47.188,13.568-5.49a.444.444,0,0,1,.258-.246.456.456,0,0,1,.351,0L588,492.636l-1.007-2.482h0v-.023h0s0-.047-.012-.059l-11.449-28.329h0v-.023h0a.352.352,0,0,1,.07-.34l18.835-24.1a.327.327,0,0,1,.258-.129.342.342,0,0,1,.339.3.359.359,0,0,1-.07.246L576.9,460.83l27.217-10.992L622,442.615v.726l-17.325,7,6.907,17.1,10.407-4.2v.726l-10.161,4.109,4.05,10.009,6.111-2.47v.726l-34.241,13.837.9,2.212,33.34-13.474v.726l-33.4,13.5-74.663,30.167a.444.444,0,0,1-.258.246.457.457,0,0,1-.351,0l-13.579,5.49,4.331,10.723,5.6-2.259a.635.635,0,0,1,.129-.023.344.344,0,0,1,.316.211l9.424,23.342,7.656-3.09-9.307-23.026a.465.465,0,0,1-.258-.609.453.453,0,0,1,.445-.293.316.316,0,0,1,.176.035l103.741-41.909v.726l-4.624,1.861,4.624,11.437v1.791l-5.244-12.982L579.533,510.02l15.031,37.214,27.428-11.086v.726l-27.486,11.109a.637.637,0,0,1-.129.023.344.344,0,0,1-.316-.211h0s0-.035-.012-.047l-15.136-37.484-21.551,8.709,3.922,10.161s.023.059.035.094a9.409,9.409,0,0,1,.129,1.288h0v.023a8.9,8.9,0,0,1-1.206,4.718.043.043,0,0,1-.012.035,7.46,7.46,0,0,1-.7.983c-.211.3-.433.6-.667.89h0a12.578,12.578,0,0,1-1.615,1.639,11.317,11.317,0,0,1-1.873,1.288h0c-.293.164-.62.328-.96.48a.089.089,0,0,0-.047.023l-.082.035h0a2.582,2.582,0,0,1-.246.105h-.012l-.023.012h-.035a2.865,2.865,0,0,0-.281.117l-1.089.445c-.105.047-.211.082-.316.129l-.047.023h-.023l-.035.023h-.023a.909.909,0,0,1-.187.082l-.082.035a.266.266,0,0,1-.047.012,10.032,10.032,0,0,1-1.018.316h-.023a11.91,11.91,0,0,1-2.236.386c-.293.023-.6.035-.9.035a13.646,13.646,0,0,1-1.381-.07h-.012c-.41-.047-.8-.105-1.147-.176a7.509,7.509,0,0,1-1.159-.222,8.506,8.506,0,0,1-2.271-.983,8.982,8.982,0,0,1-1.955-1.627,9.5,9.5,0,0,1-.808-1.007c0-.023-.023-.035-.035-.059h0l-4.249-10.067-16.1,6.509,9.307,23.026a45.306,45.306,0,0,1,29.91-1.253,46.063,46.063,0,0,1,12,5.631A45.216,45.216,0,0,1,586.8,582.915a.328.328,0,0,1,0,.258.308.308,0,0,1-.187.176L545,600.17l2.131,5.291L603.461,582.7,622,575.213v.726L604.022,583.2l4.355,10.77a.588.588,0,0,1,.14-.105l1.756-.7a.659.659,0,0,1,.117-.023h0a.526.526,0,0,1,.105-.07l5.2-2.107,6.3-2.54v.726l-5.256,2.119.07.176,5.186-2.1v1.007l-5.3,2.142.059.129L622,590.5v1.007l-4.425,1.791.07.176L622,591.718v.726l-8.159,3.3a.636.636,0,0,1-.129.023l-.105.07-3.688,1.487a.635.635,0,0,1-.129.023h-.047l.141.363,2.646-1.065a.635.635,0,0,1,.129-.023.344.344,0,0,1,.316.211l2.2,5.443.632,1.58L622,601.353v.726l-6.251,2.529a.636.636,0,0,1-.129.023.344.344,0,0,1-.316-.211l-.644-1.58-29.477,11.905a.5.5,0,0,1-.258.258.469.469,0,0,1-.176.035.53.53,0,0,1-.187-.035l-16.588,6.7,15.546,38.479a.477.477,0,0,1,.246.62.5.5,0,0,1-.246.246l-16.892,39.79a.489.489,0,0,1-.258.62.469.469,0,0,1-.176.035.53.53,0,0,1-.187-.035l-7.223,2.915h-1.8l8.78-3.547a.48.48,0,0,1,.246-.234l16.892-39.8a.457.457,0,0,1,0-.351l-15.651-38.748v-.023l-.023-.012a.328.328,0,0,1,0-.258.365.365,0,0,1,.187-.187l16.9-6.825a.482.482,0,0,1,.258-.246.456.456,0,0,1,.351,0l29.488-11.917-1.943-4.811-52.116,21.06,16.962,41.967a.387.387,0,0,1,0,.281l-15.242,35.891a.413.413,0,0,1-.176.2h-.012l-7.761,3.137-8.077,3.266.468,1.171H545.8l-.5-1.229a.326.326,0,0,1,.176-.433h0l2.646-1.065-.152-.363a.541.541,0,0,1-.141.117l-3.7,1.487-.234.094-3.477,1.4h-1.791l.983-.4-.07-.176-1.417.574h-2.493l4.039-1.627-.059-.129-4.355,1.756h-2.482l6.017-2.435-.07-.176-6.45,2.61h-1.8l15.979-6.45a.635.635,0,0,1,.129-.023h.059l-4.46-11.039a.169.169,0,0,0-.023-.035h0a.357.357,0,0,1,0-.269.308.308,0,0,1,.187-.176l6.8-2.751,9.763-23.459-22.816-56.459a.44.44,0,0,1-.176-.211.486.486,0,0,1,0-.363.464.464,0,0,1,.258-.258.457.457,0,0,1,.351,0l7.925-3.208,41.593-16.81a44.536,44.536,0,0,0-16.8-20.322,45.077,45.077,0,0,0-24.677-7.387,44.532,44.532,0,0,0-16.728,3.266h-.047l-8.229,3.336H519.5a.454.454,0,0,1-.129.035.344.344,0,0,1-.316-.211l-9.424-23.342-5.6,2.259a.636.636,0,0,1-.129.023.344.344,0,0,1-.316-.211l-4.565-11.308a.17.17,0,0,0-.023-.035v-.023h0v-.023l-19.058-47.188a51.3,51.3,0,0,0-27.978,66.5l4.5,11.121a.328.328,0,0,1-.187.433l-52.2,21.083,4.647,11.507a.328.328,0,0,1-.187.433l-11.355,4.589a.637.637,0,0,1-.129.023.344.344,0,0,1-.316-.211l-4.647-11.507-80.106,32.368a.635.635,0,0,1-.129.023.344.344,0,0,1-.316-.211c0-.012-.012-.035-.012-.047l-61.681-152.65-58.976,23.834,2.259,5.6h0a.33.33,0,0,1-.187.421l-8.276,3.348-41.546,16.787a44.8,44.8,0,0,0,58.2,24.443l8.276-3.348a.636.636,0,0,1,.129-.023.332.332,0,0,1,.316.211l52.14,129.05,11.987-4.846a.636.636,0,0,1,.129-.023.344.344,0,0,1,.316.211l9.552,23.647,8.007,19.807h0Zm252.212-4.893h0l-4.577,1.85.2.492.094.234.3.761.094.234.035.094a.328.328,0,0,1,0,.258.308.308,0,0,1-.187.176l-.164.07.035.082,3.114-1.253-.41-1.007a.169.169,0,0,0-.023-.035.341.341,0,0,1,.152-.433H543l.55-.234a.36.36,0,0,1,.141-.328.355.355,0,0,1,.211-.375l.539-.222-.152-.363h0Zm1.99-.808h0l-1.124.457.328.819a.328.328,0,0,1-.187.433l-.55.222a.309.309,0,0,1-.14.316v.023a.254.254,0,0,1,0,.258.308.308,0,0,1-.187.176l-.539.222.211.515,3.067-1.241-.89-2.213h0Zm-2-98.228h0l-7.609,3.079a.166.166,0,0,1-.023.047l22.816,56.471a.357.357,0,0,1,0,.269l-9.868,23.717-.035.07a.367.367,0,0,1-.129.105h0l-6.626,2.669,5.865,14.516,4.811-1.943-.258-.632-1.147-2.833a.327.327,0,0,1,0-.257.365.365,0,0,1,.187-.187l6.064-2.447L572.158,660.6l-17.911-44.332-.023-.035a.328.328,0,0,1,0-.258.365.365,0,0,1,.187-.187l48.125-19.444a.636.636,0,0,1,.129-.023.332.332,0,0,1,.316.211l1.147,2.845.258.632,4.811-1.943-5.865-14.516-56.026,22.64a.444.444,0,0,1-.258.246.469.469,0,0,1-.176.035.474.474,0,0,1-.445-.656l-2.142-5.291h0Zm59.328-.585h0l-44.671,18.051L576.138,660.5a.485.485,0,0,1,.023.187.086.086,0,0,1-.023.07l-14.914,35.131a.413.413,0,0,1-.176.2h-.012l-7.059,2.856.129.316,7.316-2.95,15.136-35.681-17.021-42.1a.169.169,0,0,0-.023-.035.331.331,0,0,1,.187-.445h0l44.039-17.794-.129-.328Zm-1.147-2.845h0l-47.5,19.2,17.852,44.191a.365.365,0,0,1-.012.293l-13.907,32.754a.354.354,0,0,1-.2.211l-5.877,2.376.89,2.213,6.93-2.8,14.808-34.9-17.232-42.658a.167.167,0,0,0-.023-.047.326.326,0,0,1-.012-.211.361.361,0,0,1,.2-.234h0a.117.117,0,0,0,.047-.012L603.367,599.3l-.89-2.212h0ZM252.459,667.4h0L246.2,693.458a24.966,24.966,0,0,0,12.491.62l-1.8-25.6-3.126,1.264a.635.635,0,0,1-.129.023.344.344,0,0,1-.316-.211l-.866-2.154h0Zm9.271-.878h0l-4.191,1.7,1.814,25.73a24.416,24.416,0,0,0,3.711-1.182l7.972-3.219-9.306-23.026ZM250.4,662.308h0l-15.312,24.138a25.251,25.251,0,0,0,10.465,6.813l6.474-26.924-1.627-4.027Zm-27.241.667h0l-23.026,9.307,8.077,19.983,19.7-17.524-4.753-11.765h0Zm50.876-1.416h0l-11.671,4.718,9.306,23.026,11.671-4.718Zm-25.613-4.144-19.7,17.524,1.592,3.922a25.271,25.271,0,0,0,4.32,7.059l15.464-24.384-1.662-4.121h0Zm-1.615-3.992h0l-23.026,9.307,4.659,11.542,19.7-17.524-1.346-3.325h0Zm-28.622-2.739h0l-23.026,9.307,4.718,11.671,23.026-9.307Zm-8.721-113.528h0l-7.656,3.09,47.048,116.431a.236.236,0,0,1,.023.07l1.885,4.659a.236.236,0,0,1,.023.07l1.885,4.671h0v.035h0l1.124,2.81,3.208-1.3h.023l4.413-1.779L209.426,537.167h0Zm32.38,103.964h0l-23.026,9.307,4.718,11.671,23.026-9.307Zm-28.622-2.739h0l-23.026,9.307,4.718,11.671,23.026-9.307-4.718-11.671Zm23.647-9.552h0l-23.026,9.307,4.718,11.671,23.026-9.307-4.718-11.671Zm-28.622-2.739h0l-23.026,9.307,4.718,11.671,23.026-9.307Zm23.647-9.552h0l-23.026,9.307,4.718,11.671,23.026-9.307-4.718-11.671ZM203.269,613.8h0L180.242,623.1l4.718,11.671,23.026-9.307L203.269,613.8Zm23.647-9.552h0l-23.026,9.307,4.718,11.671,23.026-9.307-4.718-11.671Zm-28.622-2.739h0l-23.026,9.307,4.718,11.671,23.026-9.307Zm23.647-9.552h0l-23.026,9.307,4.718,11.671,23.026-9.307-4.718-11.671h0Zm-28.622-2.739h0l-23.026,9.307,4.718,11.671,23.026-9.307-4.718-11.671Zm23.647-9.552h0l-23.026,9.307,4.718,11.671,23.026-9.307-4.718-11.671Zm-28.622-2.739h0l-23.026,9.307,4.718,11.671,23.026-9.307-4.718-11.671Zm421.755,17.1h0l-1.135.457.89,2.213,3.067-1.241-.211-.515-.539.222a.636.636,0,0,1-.129.023.344.344,0,0,1-.316-.211h0v-.023h-.047a.313.313,0,0,1-.269-.141l-.55.222a.328.328,0,0,1-.433-.187c0-.012-.012-.035-.012-.047l-.316-.773h0Zm2.95-.187a.332.332,0,0,1,.316.211l.421,1.054,3.114-1.253-.035-.082-.164.059a.637.637,0,0,1-.129.023.344.344,0,0,1-.316-.211l-.023-.047s0-.023-.012-.023h0v-.023h0v-.023l-.059-.152a.169.169,0,0,0-.023-.035.07.07,0,0,0-.012-.047l-.269-.679a.169.169,0,0,0-.023-.035.07.07,0,0,0-.012-.047l-.059-.152-.023-.035h0v-.047l-.023-.047-.164-.4-4.577,1.85.152.363.539-.222a.329.329,0,0,1,.4.117h.047a.349.349,0,0,1,.281.141l.55-.222a.661.661,0,0,1,.117-.023h-.012ZM211.99,567.369h0l-23.026,9.307,4.718,11.671,23.026-9.307-4.718-11.671Zm-41.358,2.4h0l-10.29,4.156,4.718,11.671,23.05-9.307-4.718-11.671-11.858,4.788-3.172,7.48a.29.29,0,0,1-.176.176.421.421,0,0,1-.129.023.232.232,0,0,1-.129-.023.326.326,0,0,1-.176-.445l2.915-6.86h-.023Zm25.227-10.185h0L184,564.373l4.718,11.671,23.026-9.307-4.718-11.671-10.29,4.156,6.86,2.915a.317.317,0,0,1,.176.433h0a.328.328,0,0,1-.187.187.421.421,0,0,1-.129.023.231.231,0,0,1-.129-.023l-7.48-3.172h0Zm-17.9-7.071h0l-22.581,9.119L160.1,573.3l10.922-4.413,6.954-16.377h0Zm.62.269h0l-6.7,15.757L183.111,564l-4.53-11.226Zm.62-.258h0l4.53,11.226,11.226-4.542-15.768-6.7h0Zm2.646-59.749h0l-46.673,18.859,19.948,49.389L178.44,551.6h.023l.012-.012h.012l23.307-9.412-.656-1.615a45.239,45.239,0,0,1-29.863,1.229,46.062,46.062,0,0,1-12-5.631A45.216,45.216,0,0,1,142.232,515.3a.341.341,0,0,1,.187-.445l41.546-16.787-2.131-5.28h0Zm20.205,50h0l-22.581,9.119,16.377,6.954,10.91-4.413-4.718-11.671h0Zm339.834-2.33h0a7.857,7.857,0,0,0,2.084.9H544a6.674,6.674,0,0,0,1.054.2h.047c.363.07.726.129,1.065.164a12.139,12.139,0,0,0,1.311.07c.281,0,.574,0,.855-.023a10.706,10.706,0,0,0,2.107-.351,8.729,8.729,0,0,0,.983-.3.058.058,0,0,0,.035-.012l.679-.269h.012l1.1-.445h0l.667-.269h.023a8.375,8.375,0,0,0,.913-.468,11.3,11.3,0,0,0,1.768-1.217,13.541,13.541,0,0,0,1.534-1.534c.2-.246.421-.527.644-.843,0-.012.023-.035.035-.047a6.994,6.994,0,0,0,.644-.9,7.853,7.853,0,0,0,.866-2.072v-.035a8.313,8.313,0,0,0,.258-2.341v-.023a7.448,7.448,0,0,0-.105-1.135l-3.91-10.138-10.43,4.214.679,1.674a13.9,13.9,0,0,1,1.545-.48,12.671,12.671,0,0,1,3.044-.375c.246,0,.5,0,.749.023a9.04,9.04,0,0,1,3.36.831l.035.023a6.778,6.778,0,0,1,2.388,1.873h0s0,.023.012.023a5.644,5.644,0,0,1,.737,1.288,5.48,5.48,0,0,1,.363,1.416h0v.023a6.594,6.594,0,0,1-.421,3.079,9.094,9.094,0,0,1-1.838,2.927,12.649,12.649,0,0,1-2.962,2.376,13.19,13.19,0,0,1-3.629,1.463h-.012a12.353,12.353,0,0,1-3,.363c-.246,0-.492,0-.726-.023h-.035a9.04,9.04,0,0,1-3.36-.831,6.646,6.646,0,0,1-2.447-1.92h0V537.3a5.508,5.508,0,0,1-1.089-2.692v-.023a6.593,6.593,0,0,1,.41-3.044v-.047a9.332,9.332,0,0,1,1.85-2.927,12.311,12.311,0,0,1,2.962-2.365.036.036,0,0,0,.023-.012,12.563,12.563,0,0,1,1.428-.726l-.679-1.674L535.119,528l4.226,10.021a10.8,10.8,0,0,0,.726.913l.023.023a8.524,8.524,0,0,0,1.768,1.463h.012l.023.023Zm4.6-14.34h0a11.386,11.386,0,0,0-1.358.691h-.012a11.749,11.749,0,0,0-2.786,2.248,8.686,8.686,0,0,0-1.7,2.681.088.088,0,0,1-.012.047,6.01,6.01,0,0,0-.375,2.763v.023a4.945,4.945,0,0,0,.948,2.353h0a5.837,5.837,0,0,0,2.189,1.733,8.768,8.768,0,0,0,3.09.773h.035c.246.012.48.023.7.023a11.807,11.807,0,0,0,2.868-.351h.035a13.679,13.679,0,0,0,3.383-1.37h.012l.023-.023a11.764,11.764,0,0,0,2.8-2.236h0a8.882,8.882,0,0,0,1.709-2.716,6.009,6.009,0,0,0,.375-2.763v-.023a5.09,5.09,0,0,0-.316-1.241.043.043,0,0,0-.012-.035h0a4.7,4.7,0,0,0-.6-1.054l-.035-.035a5.924,5.924,0,0,0-2.189-1.721c-.012,0-.023-.012-.035-.023a8.74,8.74,0,0,0-3.079-.749c-.234-.012-.468-.023-.691-.023a11.779,11.779,0,0,0-2.856.351h-.023a11.114,11.114,0,0,0-1.463.457l.562,1.381h.117a1.232,1.232,0,0,1,.96.468l2.411-.972a.636.636,0,0,1,.129-.023.344.344,0,0,1,.316.211.328.328,0,0,1,0,.258.308.308,0,0,1-.187.176l-2.411.972a1.233,1.233,0,0,1-.457,1.077l1.007,2.411a.328.328,0,0,1,0,.258.334.334,0,0,1-.62,0l-.972-2.411h-.129a1.232,1.232,0,0,1-.96-.468l-2.411.972a.637.637,0,0,1-.129.023.33.33,0,0,1-.339-.328.3.3,0,0,1,.023-.14.366.366,0,0,1,.187-.187l2.411-.972a1.2,1.2,0,0,1,.457-1.077l-.562-1.381H546.5Zm1.311,1.8a.537.537,0,0,0-.539.538.545.545,0,0,0,.539.539.4.4,0,0,0,.164-.023H548l.023-.023h.012a.532.532,0,0,0,.234-.726.553.553,0,0,0-.48-.293h0ZM84.836,432.361h0L80.013,434.3l33.094,81.921,4.823-1.943L88.1,440.45l-2.2-5.443-1.065-2.646Zm4.343,8.019h0l-.316.129,29.7,73.516.328-.129-29.7-73.516h0Zm2.845-1.147h0l-2.212.89,29.7,73.516,2.212-.89-29.7-73.516Zm.176-.784a.344.344,0,0,1,.316.211l29.828,73.832,10.735-4.343a.444.444,0,0,1,.258-.246.456.456,0,0,1,.351,0l194.98-78.772-3.09-7.656L221.355,463.581a.328.328,0,0,1-.433-.187c0-.012-.012-.035-.012-.047l-7.024-17.372-27.568,11.133-15.558,6.286,7.047,17.431a.328.328,0,0,1,0,.258.365.365,0,0,1-.187.187l-47.293,19.1a.637.637,0,0,1-.129.023.334.334,0,0,1-.293-.164.089.089,0,0,0-.023-.047l-28.68-71-14.516,5.865,1.943,4.811,3.418-1.381a.169.169,0,0,0,.035-.023h0a.66.66,0,0,1,.117-.023h0Zm518.929,29.98-27.756,11.215,4.05,10.009,27.756-11.215-4.05-10.009Zm-7.164-17.735h0l-27.756,11.215,6.907,17.1L610.871,467.8ZM240.6,435.182h0l-15.558,6.286-10.536,4.261,6.907,17.115L247.519,452.3l-6.907-17.115h0Zm-65.567-6.52h0a17.007,17.007,0,0,0-9.388,22.125l4.846,12,15.242-6.158-9.962-24.653a.345.345,0,0,1,.105-.4.189.189,0,0,1,.082-.047l9.786-3.957-1.124-2.786-9.587,3.875h0Zm39.591-12.034h0l-9.786,3.957-18.543,7.492-9.786,3.957,9.833,24.349,27.568-11.144,10.547-4.261Zm.187-.773a.344.344,0,0,1,.316.211l9.962,24.653,15.242-6.158-4.846-12a16.989,16.989,0,0,0-22.125-9.388h0l-9.587,3.875,1.124,2.786,9.786-3.957a.828.828,0,0,1,.14-.023h0Zm-163.818-70.1h0l-.363.152,1.065,2.646a.328.328,0,0,1,0,.258.366.366,0,0,1-.187.187l-5.443,2.2-1.58.632,33.386,82.623,1.58-.644,5.443-2.2a.324.324,0,0,1,.433.187l1.065,2.646.363-.152a.589.589,0,0,1-.105-.14l-1.475-3.641a.167.167,0,0,0-.023-.047c0-.012-.012-.035-.012-.047L54.107,353.6l-1.51-3.734a.636.636,0,0,1-.023-.129.277.277,0,0,1-.07-.105c0-.012-.012-.035-.012-.047l-1.475-3.641a.514.514,0,0,1-.023-.176h0Zm35.435,84.555h0l-.5.211,1.241,3.067,2.212-.89-.457-1.124-.819.328a.636.636,0,0,1-.129.023.344.344,0,0,1-.316-.211.089.089,0,0,0-.012-.047l-.211-.5h-.047a.349.349,0,0,1-.281-.14h-.023a.453.453,0,0,1-.129.035.344.344,0,0,1-.316-.211l-.211-.538h0ZM65.134,340.045h0L54.365,344.4a.589.589,0,0,1,.105.14l.7,1.756a.636.636,0,0,1,.023.129h0a.674.674,0,0,1,.059.105L87,425.1l.187.48,2.107,5.209.094.234.7,1.756a.514.514,0,0,1,.023.176l10.77-4.355L65.123,340.068Zm275.122,85.14h0l-10.735,4.331,1,2.447,10.735-4.331-.983-2.447ZM95.711,380.127h0l-11.2,4.519,18.859,46.673,19.784-8c-.152-.339-.328-.714-.527-1.135h0c-.468-1-1.03-2.025-1.639-3.067a.169.169,0,0,0-.023-.035c-.574-.972-1.194-1.943-1.838-2.88-.269-.386-.562-.784-.855-1.182l-3.289,1.335a4.289,4.289,0,0,1-5.584-2.353h0v-.035L95.735,380.15h0ZM87.657,430.1a.344.344,0,0,1,.316.211l.211.538.375-.152-1.85-4.577-.492.2-.234.094-.761.3-.234.094-.094.035a.341.341,0,0,1-.445-.187l-.059-.164-.082.035,1.253,3.114,1.054-.433a.265.265,0,0,1,.047-.012h.082a.344.344,0,0,1,.316.211l.222.55h.047a.345.345,0,0,1,.281.152h.059Zm249.251-13.2h0l-10.735,4.331,3.09,7.656L340,424.553l-3.09-7.656Zm-133.768.4h0l-17.911,7.234,1.124,2.786,17.911-7.234-1.124-2.786ZM55.828,352.711h0l-.129.047,29.582,73.223.129-.059L55.828,352.711h0Zm-.8.866h0l-.176.07,29.2,72.263.176-.07Zm2.037-.819h0l-.176.07,29.2,72.263.176-.07-29.2-72.263Zm96.507,48h0l-34.651,14c.293.4.538.749.761,1.054,0,.012.023.023.023.035.644.925,1.264,1.908,1.861,2.927s1.159,2.06,1.662,3.114c.2.41.386.808.55,1.171l33.363-13.486-3.57-8.827h0Zm-15.288-37.835h0L96.343,379.87l13.685,33.866a3.615,3.615,0,0,0,4.694,2h0l3.5-1.416a.172.172,0,0,1,.047-.023c.023,0,.035-.012.059-.012l34.99-14.141L138.287,362.93h0Zm-57.864-20.65h0l-11.2,4.53,15.043,37.214,11.2-4.519L80.423,342.281ZM123,325.072h0L81.055,342.023,96.1,379.237l41.955-16.951L123.01,325.072h0ZM54.786,347.08h0l-.375.152.222.538a4.123,4.123,0,0,1-.258.726l.222.55a.328.328,0,0,1-.187.433l-1.065.421,1.253,3.114.082-.035-.059-.164a.328.328,0,0,1,0-.258.366.366,0,0,1,.187-.187l1.416-.574.4-.164-1.85-4.577h0Zm486.28-3.032h0l-10.723,4.331.983,2.447,10.735-4.331Zm-485.215-92.6h0L13.158,268.707l33,81.675,4.823-1.943L49.916,345.8l-2.2-5.443L20.077,271.937h0l-.012-.047a.328.328,0,0,1,0-.258.366.366,0,0,1,.187-.187l73.9-29.863,2.646-1.065-1.943-4.811L76.805,243a.459.459,0,0,1-.246.246.456.456,0,0,1-.351,0l-19.725,7.972a.444.444,0,0,1-.258.246.457.457,0,0,1-.351,0h0ZM54,345.043h0l-2.212.89,1.241,3.055.515-.211-.222-.538a.328.328,0,0,1,.187-.433h.035a.338.338,0,0,1,.14-.328l-.211-.5a.169.169,0,0,0-.023-.035.34.34,0,0,1,.187-.445l.819-.328-.445-1.124Zm483.728-9.33h0l-10.735,4.331,3.09,7.656,10.723-4.331-3.09-7.656ZM106.024,258.885h0l-62.137,25.1,25.1,62.137,11.2-4.53L59.738,290.972a.328.328,0,0,1,0-.258.308.308,0,0,1,.187-.176l50.618-20.451-4.53-11.191h0ZM94.061,242.32h0l-4.811,1.943.258.632,1.147,2.845a.328.328,0,0,1,0,.258.308.308,0,0,1-.187.176L26.094,274.185l26.011,64.373a.328.328,0,0,1-.187.433h0l-2.833,1.147-.632.258,1.943,4.811,14.516-5.865-1.557-3.851-2.8-6.93-19.14-47.375a.483.483,0,0,1-.246-.62.464.464,0,0,1,.258-.258.47.47,0,0,1,.176-.035.317.317,0,0,1,.176.035l38.83-15.686a.474.474,0,0,1,.609-.246l18.718-7.562L94.072,242.3h0Zm16.74,28.388h0L60.487,291.03l20.322,50.3,42.131-17.021,4.87-11.484L110.789,270.7ZM88.629,244.521h0l-67.85,27.416,27.4,67.838.316-.129L21.341,272.441a.328.328,0,0,1,0-.258.308.308,0,0,1,.187-.176l67.206-27.159-.129-.316h.012Zm.386.948h0l-66.9,27.03,27.03,66.89,2.212-.89L25.345,274.126a.328.328,0,0,1,0-.258.308.308,0,0,1,.187-.176c.012,0,.035-.012.047-.012L89.9,247.694l-.89-2.212h0Zm59.632,9.95h0l-37.226,15.043,16.962,41.991L165.6,297.422l-16.962-41.991h0Zm37.835-15.288h0l-37.214,15.031,16.962,41.991,37.214-15.031-16.962-41.991h0Zm35.833-14.2a3.5,3.5,0,0,0-1.346.269L187.1,239.886l16.962,41.991,37.214-15.031-15.6-38.631a3.627,3.627,0,0,0-3.36-2.271h0ZM143.859,243.6h0l-37.214,15.043,4.53,11.191L148.39,254.8l-4.519-11.2h0Zm93.393-13.966h0c-.445.164-.878.3-1.3.445h-.035c-1.112.375-2.236.691-3.348.972-1.147.281-2.283.515-3.383.691-.457.07-.878.14-1.276.2l14,34.639,8.838-3.57-13.486-33.375h0ZM96.191,245.821l4.355,10.77,88.546-35.774-4.355-10.77a.542.542,0,0,1-.14.117L98.368,245a.636.636,0,0,1-.129.023.276.276,0,0,1-.105.07l-1.756.7a.636.636,0,0,1-.129.023h-.059Zm161.98-98.134h0L.773,251.7l1.662,4.1L263.849,150.168l-5.5-2.341a.389.389,0,0,1-.164-.14h0ZM181.694,228.32h0L144.48,243.351l4.519,11.2,37.214-15.031-4.519-11.2ZM98.6,241.606h0l-3.067,1.241.89,2.212,1.124-.457-.316-.784a.168.168,0,0,0-.023-.035.343.343,0,0,1,.082-.375.276.276,0,0,1,.105-.07l.55-.222a.329.329,0,0,1,.14-.316v-.023a.276.276,0,0,1,0-.269.344.344,0,0,1,.187-.176c.012,0,.035-.012.047-.012l.492-.2-.211-.515h0Zm3.968-1.6h0l-3.114,1.253.433,1.054a.328.328,0,0,1-.187.433h0l-.55.222a3.832,3.832,0,0,1-.351.691l-.538.222.152.363,4.577-1.85-.14-.351a.172.172,0,0,1-.023-.047.07.07,0,0,0-.012-.047l-.012-.023h0a.414.414,0,0,1-.012-.07l-.059-.14-.023-.047c0-.012-.012-.035-.012-.047l-.269-.656a.167.167,0,0,0-.023-.047c0-.012-.012-.035-.012-.047l-.059-.14a.167.167,0,0,0-.023-.047c0-.012-.012-.035-.012-.047a.089.089,0,0,0-.023-.047.328.328,0,0,1,0-.258.366.366,0,0,1,.187-.187l.164-.059-.035-.082h0Zm74.721-39.813h0L94.669,233.576l.644,1.58,2.2,5.443a.328.328,0,0,1,0,.258.365.365,0,0,1-.187.187l-2.646,1.065.152.363a.541.541,0,0,1,.14-.117l3.687-1.487a.636.636,0,0,1,.129-.023.276.276,0,0,1,.105-.07l3.734-1.51,72.9-29.453,3.734-1.51.234-.094,3.687-1.487a.636.636,0,0,1,.129-.023h.059l-.152-.363L180.57,207.4a.331.331,0,0,1-.445-.187c0-.012-.012-.035-.012-.047l-2.154-5.338a.166.166,0,0,0-.023-.047c0-.012-.012-.035-.012-.047l-.62-1.534h0Zm-1.018,12.42h0l-72.263,29.2.07.176,72.275-29.2-.07-.176Zm.07-1.182h0l-73.211,29.582.059.129L176.4,211.556l-.059-.129Zm-.89-.855h0l-72.263,29.2.07.176,72.275-29.2-.07-.176h0Zm53.521-1.346h0L182.3,228.086l4.519,11.191,33.866-13.685s.035,0,.047-.012h0a4.289,4.289,0,0,1,5.537,2.388l1.346,3.348c.457-.059.9-.129,1.428-.211,1.1-.176,2.224-.41,3.336-.691h0c1.077-.258,2.142-.562,3.184-.9h.023V229.5a.507.507,0,0,0,.059-.012c.5-.164.913-.3,1.3-.445l-8.007-19.819Zm-40.34-5.092h0l-4.811,1.943,5.865,14.516,9.049-3.664a.482.482,0,0,1,.258-.246.47.47,0,0,1,.176-.035.317.317,0,0,1,.176.035l82.436-33.3a.482.482,0,0,1,.258-.246.457.457,0,0,1,.351,0l.808-.328-5.865-14.516-4.811,1.943.258.632,1.147,2.845a.328.328,0,0,1,0,.258.308.308,0,0,1-.187.176L190.5,207.775a.341.341,0,0,1-.445-.187l-1.4-3.477h0ZM176.391,210.3a.344.344,0,0,1,.316.211l.035.094.094.234.3.761.094.234.2.492,4.577-1.85-.152-.363-.538.222a.636.636,0,0,1-.129.023.345.345,0,0,1-.281-.152h-.059a.344.344,0,0,1-.269-.14l-.55.222a.331.331,0,0,1-.445-.187c0-.012-.012-.035-.012-.047l-.41-1.007-3.114,1.253.035.082.164-.059a.636.636,0,0,1,.129-.023h0Zm5.841-1.194a.344.344,0,0,1,.316.211l.328.819,1.124-.457-.89-2.212-3.067,1.241.211.515.492-.2a.172.172,0,0,1,.047-.023.421.421,0,0,1,.129-.023.332.332,0,0,1,.316.211v.023h.059a.313.313,0,0,1,.269.14l.55-.222s.082-.023.129-.035h0Zm90.045-37.659h0l-82.623,33.386.89,2.212,82.623-33.386-.89-2.212Zm-.386-.948h0l-82.623,33.375.129.316,82.623-33.386-.129-.316h0Zm9.985-2.927h0l-3.067,1.241.89,2.212,1.124-.457-.316-.773a.118.118,0,0,1-.012-.035h0a.349.349,0,0,1,.187-.457l.55-.222a.322.322,0,0,1,.129-.316v-.023a.275.275,0,0,1,0-.269.344.344,0,0,1,.187-.176c.012,0,.035-.012.047-.012l.492-.2-.211-.515Zm3.968-1.6h0l-3.114,1.253.433,1.054a.328.328,0,0,1-.187.433l-.55.222a3.833,3.833,0,0,1-.351.691l-.539.222.152.363,4.577-1.85-.14-.351a.166.166,0,0,0-.023-.047c0-.012-.012-.035-.012-.047l-.538-1.323a.167.167,0,0,0-.023-.047.328.328,0,0,1,0-.258.308.308,0,0,1,.187-.176l.164-.07-.035-.082h0ZM431.518,97.49,277.943,159.534l.644,1.58,2.2,5.432a.328.328,0,0,1,0,.258.365.365,0,0,1-.187.187l-2.646,1.065.152.363a.542.542,0,0,1,.14-.117l3.687-1.487a.636.636,0,0,1,.129-.023.276.276,0,0,1,.105-.07l3.734-1.51,143.847-58.122,3.734-1.51.234-.094L437.406,104a.637.637,0,0,1,.129-.023h.059l-.152-.363-2.646,1.065a.637.637,0,0,1-.129.023.344.344,0,0,1-.316-.211c0-.012-.012-.035-.012-.047l-2.177-5.4-.644-1.569ZM430.5,109.9,287.285,167.763l.07.176L430.57,110.074l-.07-.187Zm.07-1.182h0L286.407,166.967l.059.129,144.163-58.251-.047-.129h0Zm-.9-.843L286.454,165.738l.07.176,143.215-57.864Zm-157.988,39.9h0l-6.122,2.47,8.592,3.652-2.47-6.122Zm-1.908-4.729-10.852,4.39,5.759,2.447,6.755-2.728-1.662-4.1h0Zm-4.413-10.934-6.146,14.457,10.3-4.167-4.156-10.3Zm333.161-4.729h0l-.375.152,1.85,4.577.4-.164,1.417-.574a.324.324,0,0,1,.433.187h0l.059.164.082-.035-1.253-3.114-1.054.421a.636.636,0,0,1-.129.023.344.344,0,0,1-.316-.211h0v-.047l-.2-.5h-.047a.386.386,0,0,1-.281-.14h-.047a.344.344,0,0,1-.316-.211v-.023l-.012-.023-.211-.492Zm-36.9-57.15a.471.471,0,0,1,.433.293.457.457,0,0,1,0,.351l23.495,58.157,14.516-5.865-1.943-4.811-.632.258-2.833,1.147a.34.34,0,0,1-.445-.187h0v-.047l-26-64.326-123.5,49.892a.328.328,0,0,1-.433-.187h0l-1.4-3.477-4.811,1.943,5.865,14.516L561.212,70.5a.482.482,0,0,1,.258-.246.46.46,0,0,1,.164-.035h0Zm38.139,56.939a.344.344,0,0,1,.316.211l.211.538.515-.211-1.241-3.067-2.212.89.457,1.124.819-.328a.637.637,0,0,1,.129-.023.344.344,0,0,1,.316.211l.222.55h.047a.344.344,0,0,1,.269.14h.035a.472.472,0,0,1,.141-.047h0ZM570.636,49.108a.344.344,0,0,1,.316.211l30.928,76.548,4.823-1.943-6.263-15.546a.464.464,0,0,1-.246-.609h0l-26.468-65.52L432.911,99.141l1.943,4.811,2.646-1.065,133.03-53.755a.659.659,0,0,1,.117-.023h0Zm-2.259,5.315a.344.344,0,0,1,.316.211L594.7,119.006l2.212-.89-27.03-66.9L443.868,102.138l.9,2.212L568.224,54.469a.167.167,0,0,0,.047-.023.236.236,0,0,1,.129-.035h0Zm1.7-3.968a.344.344,0,0,1,.316.211l27.159,67.206.328-.129-27.4-67.85-126.967,51.3.129.316L569.969,50.466a.659.659,0,0,1,.117-.023h0ZM430.605,107.628a.344.344,0,0,1,.316.211l.738,1.814,4.577-1.85-.152-.363-.538.222a.637.637,0,0,1-.129.023.367.367,0,0,1-.281-.14h-.047a.313.313,0,0,1-.269-.14l-.55.222a.345.345,0,0,1-.445-.187v-.035h0l-.41-1.03-3.114,1.253.035.082.164-.07a.636.636,0,0,1,.129-.023h0Zm5.841-1.194a.344.344,0,0,1,.316.211l.328.819,1.124-.457-.89-2.212-3.067,1.241.2.515.492-.2a.172.172,0,0,1,.047-.023.421.421,0,0,1,.129-.023.344.344,0,0,1,.316.211v.023h.059a.344.344,0,0,1,.269.14l.55-.222a.454.454,0,0,1,.129-.035h0ZM579.79,638.989a.344.344,0,0,1-.316-.211.328.328,0,0,1,0-.258.308.308,0,0,1,.187-.176l42.2-17.044v.726l-41.944,16.951a.636.636,0,0,1-.129.023h0Zm-1.908-4.741a.344.344,0,0,1-.316-.211.328.328,0,0,1,0-.258.365.365,0,0,1,.187-.187l44.109-17.817v.726l-43.852,17.723a.453.453,0,0,1-.129.035h0ZM352.723,586.533a.328.328,0,0,1-.129-.023l-46.966-19.924a.365.365,0,0,1-.187-.187.328.328,0,0,1,0-.258l11.964-28.177a.344.344,0,0,1,.316-.211.231.231,0,0,1,.129.023L364.769,557.7h.035a.326.326,0,0,1,.176.445l-11.964,28.177a.391.391,0,0,1-.176.187.415.415,0,0,1-.117.023ZM317.9,538.513h0L306.2,566.07l46.334,19.678,11.695-27.557-46.345-19.667h0ZM621.863,568.1h0a7.937,7.937,0,0,1-.878-.48,7.6,7.6,0,0,1-3.43-3.828.043.043,0,0,0-.012-.035h0a7.58,7.58,0,0,1-.187-5.057h0v-.023A9.781,9.781,0,0,1,621.1,553.2h.023a7.363,7.363,0,0,1,.749-.48v.8c-.105.07-.222.141-.339.222h0l-.012.012a9.08,9.08,0,0,0-3.488,5.092c0,.023-.012.035-.023.058a6.9,6.9,0,0,0,3.289,8.112.089.089,0,0,1,.047.023c.176.105.363.211.55.3v.749h0Zm0-2.306h0l-.129-.082s-.035-.023-.059-.035a7.145,7.145,0,0,1-1.99-2.751.07.07,0,0,0-.012-.047,7.177,7.177,0,0,1-.468-3.289v-.094a7.975,7.975,0,0,1,2.646-4.109v.9a7.17,7.17,0,0,0-1.99,3.348,6.431,6.431,0,0,0,1.99,5.3v.855h0ZM598.778,543.57a6.453,6.453,0,0,1-5.994-4.039l-9.178-22.71a6.468,6.468,0,0,1,3.57-8.417l22.7-9.166a6.46,6.46,0,0,1,8.405,3.57l3.582,8.862v1.791l-4.2-10.407a5.783,5.783,0,0,0-7.527-3.2h0l-22.7,9.166a5.783,5.783,0,0,0-3.2,7.527l9.154,22.663a.17.17,0,0,0,.023.035,5.783,5.783,0,0,0,7.527,3.2h0l20.931-8.452v.726L601.2,543.079a6.525,6.525,0,0,1-2.411.492h0Zm-205.352-.808a4.408,4.408,0,0,1-1.733-.351l-13.614-5.783a4.425,4.425,0,0,1-2.341-5.795l5.783-13.614a.17.17,0,0,1,.023-.035,4.414,4.414,0,0,1,5.771-2.306l13.614,5.783a4.433,4.433,0,0,1,2.365,5.748.07.07,0,0,1-.012.047l-5.771,13.579v.023h0a4.423,4.423,0,0,1-4.062,2.692h0Zm-7.832-27.568a3.626,3.626,0,0,0-1.4.281,3.7,3.7,0,0,0-2.049,2h0v.023l-5.771,13.591a3.74,3.74,0,0,0,1.967,4.9h.012l13.579,5.771h.035a3.725,3.725,0,0,0,4.9-1.955v-.023l5.783-13.614a3.751,3.751,0,0,0-1.978-4.9l-13.626-5.783h-.023a3.523,3.523,0,0,0-1.428-.269h0Zm213.2,26.562h0a4.668,4.668,0,0,1-4.343-2.927l-9.178-22.71a4.679,4.679,0,0,1,2.587-6.087c.012,0,.035-.012.047-.012l22.6-9.131a.167.167,0,0,0,.047-.023,4.678,4.678,0,0,1,6.087,2.575h0l5.233,12.959v1.8l-5.865-14.5a3.994,3.994,0,0,0-5.162-2.224.169.169,0,0,0-.035.023l-22.71,9.166a.058.058,0,0,0-.035.012,4.02,4.02,0,0,0-2.177,5.2l9.143,22.628a.346.346,0,0,1,.211-.351l1.6-.644a1.972,1.972,0,0,1,.89-2.084l-.644-1.6a.328.328,0,0,1,0-.258.344.344,0,0,1,.187-.176.421.421,0,0,1,.129-.023.344.344,0,0,1,.316.211l.656,1.6a1.57,1.57,0,0,1,.41-.047,1.984,1.984,0,0,1,1.674.925l1.615-.644a.659.659,0,0,1,.117-.023.344.344,0,0,1,.316.211.328.328,0,0,1-.187.433h0l-1.6.644a1.954,1.954,0,0,1-.89,2.084l.644,1.6a.345.345,0,0,1-.105.4l21.516-8.7v.726l-21.341,8.628a4.464,4.464,0,0,1-1.744.351h0Zm-3.676-3.09h0a4.005,4.005,0,0,0,5.081,2.142h-.035a.344.344,0,0,1-.316-.211l-.644-1.6a1.725,1.725,0,0,1-.421.047,1.984,1.984,0,0,1-1.674-.925l-1.6.644a.361.361,0,0,1-.386-.094h0Zm3.664-2.891a1.348,1.348,0,0,0-.48.094,1.295,1.295,0,1,0,1.686.714,1.306,1.306,0,0,0-1.206-.8h0Zm-233.178.667a4.31,4.31,0,0,1-1.721-.351l-.047-.023L333.817,523.33a4.425,4.425,0,0,1-2.341-5.795h0v-.047l32.672-76.957v-.023a4.423,4.423,0,0,1,5.783-2.353h.012l30.05,12.76a4.425,4.425,0,0,1,2.341,5.795h0a.058.058,0,0,1-.012.035L369.65,533.714a4.427,4.427,0,0,1-4.074,2.692h0Zm2.646-97.935a3.738,3.738,0,0,0-3.43,2.248h0v.035L332.12,517.8h0v.035a3.766,3.766,0,0,0,1.967,4.858h.023l.012.012,30.05,12.76a3.741,3.741,0,0,0,4.9-1.978h0v-.023h0l32.672-76.992h0v-.035h0a3.772,3.772,0,0,0-2-4.87l-30.05-12.76h0a3.661,3.661,0,0,0-1.463-.281h0Zm36.149,78.362a4.408,4.408,0,0,1-1.733-.351h-.035l-13.591-5.771a4.425,4.425,0,0,1-2.341-5.795l5.783-13.614a4.407,4.407,0,0,1,5.76-2.353h.012l13.614,5.783a4.425,4.425,0,0,1,2.341,5.795l-5.76,13.579a.058.058,0,0,1-.012.035,4.427,4.427,0,0,1-4.074,2.692h0Zm-7.843-27.557a3.744,3.744,0,0,0-3.442,2.283l-5.783,13.614h0v.023a3.76,3.76,0,0,0,1.955,4.882h.035l13.614,5.783a3.744,3.744,0,0,0,4.9-1.967v-.023l5.783-13.614s0-.023.012-.023a3.754,3.754,0,0,0-1.99-4.882L398.026,489.6a3.746,3.746,0,0,0-1.475-.269h0ZM325.33,513.79a4.394,4.394,0,0,1-1.721-.351h-.035L310,507.656h-.012l-.023-.023a4.444,4.444,0,0,1-2.306-5.783l5.76-13.579a.058.058,0,0,1,.012-.035,4.409,4.409,0,0,1,4.074-2.692,4.536,4.536,0,0,1,1.674.328.058.058,0,0,1,.035.012h0l13.614,5.783a4.425,4.425,0,0,1,2.341,5.795l-5.783,13.614a4.427,4.427,0,0,1-4.074,2.692h0Zm-7.82-27.557a3.738,3.738,0,0,0-3.43,2.248v.023l-.012.012-5.783,13.614a3.756,3.756,0,0,0,1.99,4.9l13.614,5.783a3.741,3.741,0,0,0,4.9-1.978h0s0-.023.012-.023l5.771-13.591s0-.023.012-.023a3.768,3.768,0,0,0-1.99-4.882l-13.626-5.783a3.516,3.516,0,0,0-1.463-.293h0Zm40.363,7.878a.47.47,0,1,1,.421-.281.462.462,0,0,1-.421.281Zm0-.679a.263.263,0,0,0-.082.012.193.193,0,0,0-.117.117.174.174,0,0,0,0,.152.157.157,0,0,0,.164.094.23.23,0,0,0,.2-.105.179.179,0,0,0,.023-.152.22.22,0,0,0-.187-.129h0Zm57.49-2.411a4.31,4.31,0,0,1-1.721-.351h-.035L400.017,484.9a4.425,4.425,0,0,1-2.341-5.795l5.783-13.614v-.012h0a4.419,4.419,0,0,1,5.783-2.318l13.6,5.771h.012a4.425,4.425,0,0,1,2.341,5.795v.012l-5.76,13.568a.058.058,0,0,1-.012.035,4.427,4.427,0,0,1-4.074,2.692h0Zm-7.832-27.568a3.772,3.772,0,0,0-3.453,2.283L398.3,479.35a3.745,3.745,0,0,0,1.955,4.893h.035l13.614,5.795a3.737,3.737,0,0,0,4.9-1.99l5.783-13.614a.042.042,0,0,1,.023-.035,3.77,3.77,0,0,0-2-4.882l-13.626-5.783a3.671,3.671,0,0,0-1.463-.293h0ZM336.3,487.931a4.31,4.31,0,0,1-1.721-.351h-.023l-.012-.023-13.579-5.76h-.012l-.023-.023a4.424,4.424,0,0,1-2.306-5.783c0-.012,0-.023.023-.035l5.759-13.579a4.4,4.4,0,0,1,5.76-2.353.043.043,0,0,1,.035.012l13.579,5.76a.117.117,0,0,1,.047.012,4.431,4.431,0,0,1,2.353,5.76.043.043,0,0,1-.012.035L340.4,485.18h0v.035a4.427,4.427,0,0,1-4.074,2.692h0Zm-7.843-27.557a3.744,3.744,0,0,0-3.442,2.283l-5.783,13.614a.042.042,0,0,1-.023.035,3.756,3.756,0,0,0,2,4.87h0l13.614,5.783a3.735,3.735,0,0,0,4.9-1.978h0l5.771-13.6v-.012h0a3.767,3.767,0,0,0-1.943-4.9h-.035L329.9,460.667a3.615,3.615,0,0,0-1.452-.293ZM598.942,482h-.082a1.772,1.772,0,0,1-.351-.023h-.035a.205.205,0,0,1-.07-.012c-.141-.023-.281-.059-.421-.094h-.047a2.721,2.721,0,0,1-.386-.164h-.023a.7.7,0,0,0-.07-.047,2.884,2.884,0,0,1-1.487-2.4V479.2a3.142,3.142,0,0,1,.023-.468v-.023a3.217,3.217,0,0,1,.105-.457h0V478.2a2.42,2.42,0,0,1,.176-.4h0a.2.2,0,0,1,.023-.059h0a2.565,2.565,0,0,1,.222-.351v-.023a.263.263,0,0,0,.058-.059,2.891,2.891,0,0,1,.691-.62c.023-.012.035-.023.059-.035a2.239,2.239,0,0,1,.375-.187h.023a.467.467,0,0,0,.047-.035,2.433,2.433,0,0,1,.386-.117c.023,0,.047-.012.07-.012a3.2,3.2,0,0,1,.585-.059,1.835,1.835,0,0,1,.363.023h.105c.117.035.234.059.351.094h.035c.023,0,.035.012.059.023a2.852,2.852,0,0,1,.831.445c.012,0,.023.012.035.023a3.071,3.071,0,0,1,.89,1.182,2.884,2.884,0,0,1,.082,1.932.086.086,0,0,1-.023.07v.023l-.176.386v.047a3.849,3.849,0,0,1-.234.363h0a.339.339,0,0,1-.047.07,2.831,2.831,0,0,1-.714.632h0a2.707,2.707,0,0,1-.41.211h-.035l-.035.023a2.9,2.9,0,0,1-.421.129.105.105,0,0,0-.059.012c-.141.023-.293.047-.445.059h-.059Zm1.007-1.253h0l-.328.129.105.246.316-.164-.094-.222h0Zm-2.657-1.124h0l-.328.129.129.316.328-.129Zm3.219-.2h0l-.316.129.129.316.328-.129-.129-.316Zm-1.335-.562h0l-.316.129.129.316.328-.129-.129-.316h0Zm.948-.386h0l-.316.129.129.316.328-.129-.129-.316h0Zm-.386-.948h0l-.316.129.129.316.328-.129-.129-.316h0ZM185.7,477.8a.344.344,0,0,1-.316-.211l-3.828-9.459a.328.328,0,0,1,.187-.433h0l9.459-3.828a.636.636,0,0,1,.129-.023.344.344,0,0,1,.316.211l3.816,9.459a.319.319,0,0,1-.187.433h0l-9.459,3.816a.636.636,0,0,1-.129.023h0Zm5.455-13.181h0l-8.838,3.57,3.57,8.827,8.838-3.57-3.57-8.827Zm168.992,11.332a.5.5,0,0,1-.445-.293.475.475,0,0,1,.258-.609h0a.464.464,0,0,1,.609.258.456.456,0,0,1-.258.609.485.485,0,0,1-.187.035h0Zm0-.679a.209.209,0,0,0-.187.117.174.174,0,0,0,0,.152.151.151,0,0,0,.152.094.266.266,0,0,0,.211-.105.142.142,0,0,0,.012-.152.2.2,0,0,0-.187-.129h0Zm-156.712-4.647a.344.344,0,0,1-.316-.211.089.089,0,0,0-.023-.047l-3.781-9.365a.171.171,0,0,1-.023-.047.388.388,0,0,1,0-.281.4.4,0,0,1,.176-.164l9.459-3.816a.636.636,0,0,1,.129-.023.344.344,0,0,1,.316.211l3.816,9.459a.345.345,0,0,1-.187.445l-9.459,3.816a.636.636,0,0,1-.129.023h0Zm5.455-13.17h0l-8.838,3.57,3.57,8.827,8.838-3.57-3.57-8.827Zm138.345,4.636a4.394,4.394,0,0,1-1.721-.351h-.035L331.9,455.961h-.012l-.023-.023a4.42,4.42,0,0,1-2.306-5.783v-.023h0l5.748-13.556a.043.043,0,0,1,.012-.035,4.425,4.425,0,0,1,5.795-2.341l13.579,5.771h.047a4.411,4.411,0,0,1,2.353,5.759h0v.023h0l-5.771,13.6v.023h0a4.444,4.444,0,0,1-4.074,2.7h-.023ZM339.4,434.526a3.767,3.767,0,0,0-3.442,2.248h0v.035l-5.783,13.614v.012h0v.023a3.751,3.751,0,0,0,1.99,4.87h.012l13.614,5.783a3.463,3.463,0,0,0,1.452.293,3.76,3.76,0,0,0,3.453-2.283l5.76-13.614h0a3.75,3.75,0,0,0-1.943-4.893h-.035l-13.626-5.795h-.012v-.012a3.741,3.741,0,0,0-1.428-.281h0Zm275.086,27.5h-.047a.277.277,0,0,1-.222-.129.274.274,0,0,1-.058-.246l.281-1.955-1.791.726a.637.637,0,0,1-.129.023.34.34,0,0,1-.339-.34.344.344,0,0,1,.211-.316l1.791-.726-1.557-1.206a.335.335,0,0,1-.129-.222.338.338,0,0,1,.328-.375.327.327,0,0,1,.211.07l1.557,1.206.269-1.955a.33.33,0,0,1,.328-.293h.058a.3.3,0,0,1,.222.129.321.321,0,0,1,.07.246l-.269,1.955,1.861-.749a.636.636,0,0,1,.129-.023.344.344,0,0,1,.316.211.328.328,0,0,1,0,.258.366.366,0,0,1-.187.187l-1.861.749,1.557,1.217a.311.311,0,0,1,.129.222.348.348,0,0,1-.07.258.319.319,0,0,1-.14.105.421.421,0,0,1-.129.023.351.351,0,0,1-.211-.07l-1.557-1.217-.269,1.955a.332.332,0,0,1-.211.269.421.421,0,0,1-.129.023h0Zm5.3-9.049h-.047a.322.322,0,0,1-.281-.375l.269-1.943-1.791.726a.328.328,0,0,1-.433-.187h0a.328.328,0,0,1,0-.258.345.345,0,0,1,.187-.176l1.791-.726-1.557-1.206a.336.336,0,0,1-.129-.222.308.308,0,0,1,.07-.246.327.327,0,0,1,.257-.129.351.351,0,0,1,.211.07l1.557,1.217.269-1.955a.339.339,0,0,1,.328-.293h.047a.3.3,0,0,1,.222.129.274.274,0,0,1,.058.246l-.269,1.943,1.288-.527v.726l-1.042.421,1.042.808v.855l-1.452-1.136-.269,1.955a.355.355,0,0,1-.211.269.416.416,0,0,1-.117.023h0ZM263.544,440a.344.344,0,0,1-.316-.211l-11.472-28.388a.273.273,0,0,1,0-.234.354.354,0,0,1,.2-.211l8.791-3.559-7.176-3.055a.335.335,0,0,1-.176-.445.363.363,0,0,1,.316-.211.232.232,0,0,1,.129.023l7.8,3.313,37.882-15.3-2.54-20.521a.341.341,0,0,1,.293-.375h.035a.341.341,0,0,1,.339.293l2.517,20.334,22.745-9.189a.636.636,0,0,1,.129-.023.344.344,0,0,1,.316.211l11.472,28.376a.345.345,0,0,1-.187.445l-70.952,28.669a.636.636,0,0,1-.129.023Zm-1.92-32.216h0l-9.107,3.687,11.215,27.756,70.331-28.411-11.215-27.756-22.6,9.131,1.147,9.236,16.6-12.514a.377.377,0,0,1,.082-.047.421.421,0,0,1,.129-.023.313.313,0,0,1,.269.14l4.612,6.111a.7.7,0,0,1,.047.07.345.345,0,0,1-.105.4l-52.959,39.918a.376.376,0,0,1-.082.047.42.42,0,0,1-.129.023.35.35,0,0,1-.269-.129l-4.612-6.111a.335.335,0,0,1-.07-.258.364.364,0,0,1,.129-.222h.023l.023-.035,16.576-12.491-20.018-8.522Zm56.506-18.133h0l-16.763,12.631a.694.694,0,0,1-.07.047l-18.765,14.141a.463.463,0,0,0-.047.035L265.71,429.153l4.2,5.572,52.433-39.509-4.2-5.572h0Zm-18.531,2.8h0l-37.086,14.984,19.749,8.405L300.77,401.9l-1.171-9.447h0Zm322.251,45.022h0L602.114,434.7a.3.3,0,0,1-.222-.129.321.321,0,0,1-.07-.246.339.339,0,0,1,.328-.293h.047l19.655,2.763v.679ZM473.31,424.459a.475.475,0,0,1-.445-.293.486.486,0,0,1,0-.363.469.469,0,0,1,.855.386.44.44,0,0,1-.246.234.47.47,0,0,1-.176.035h0Zm0-.679a.308.308,0,0,0-.082.012.186.186,0,0,0-.105.105.174.174,0,0,0,0,.152.151.151,0,0,0,.152.094.266.266,0,0,0,.211-.105.142.142,0,0,0,.012-.152.2.2,0,0,0-.187-.129h0Zm-10.067-.41a.47.47,0,0,1-.492-.445.482.482,0,0,1,.316-.468.464.464,0,0,1,.609.258.489.489,0,0,1-.258.62.47.47,0,0,1-.176.035h0Zm0-.679a.206.206,0,0,0-.07.012.2.2,0,0,0-.117.258h0a.167.167,0,0,0,.152.105.23.23,0,0,0,.2-.105.144.144,0,0,0,.012-.152.2.2,0,0,0-.187-.129h0Zm-120.271-8.3a.47.47,0,0,1-.492-.445.483.483,0,0,1,.316-.468.475.475,0,0,1,.62.62.471.471,0,0,1-.433.293h0Zm0-.679a.263.263,0,0,0-.082.012.192.192,0,0,0-.105.258h0a.184.184,0,0,0,.164.105.23.23,0,0,0,.2-.105.144.144,0,0,0,.012-.152.2.2,0,0,0-.2-.129h0Zm119.053-34.229a.5.5,0,0,1-.445-.293.475.475,0,1,1,.62.258h0a.869.869,0,0,1-.187.035h0Zm0-.679a.206.206,0,0,0-.07.012.186.186,0,0,0-.105.105.174.174,0,0,0,0,.152.151.151,0,0,0,.152.094.23.23,0,0,0,.2-.105.142.142,0,0,0,.012-.152.216.216,0,0,0-.2-.129h0Zm-4.589-10.676a.478.478,0,0,1-.492-.445.484.484,0,0,1,.3-.457.464.464,0,0,1,.609.258.486.486,0,0,1,0,.363.464.464,0,0,1-.258.258.47.47,0,0,1-.176.035h0Zm0-.679a.206.206,0,0,0-.07.012.213.213,0,0,0-.117.269.151.151,0,0,0,.152.094.23.23,0,0,0,.2-.105.144.144,0,0,0,.012-.152.2.2,0,0,0-.187-.129h0Zm-293,.258a.344.344,0,0,1-.316-.211v-.023l-.012-.023L148.858,329.7a.058.058,0,0,0-.012-.035h0a.357.357,0,0,1,0-.269.366.366,0,0,1,.187-.187l37.846-15.288a.265.265,0,0,1,.047-.012.333.333,0,0,1,.386.2L202.6,351.95a.345.345,0,0,1-.187.445l-37.846,15.288s-.082.023-.129.035h0Zm22.371-53.03h0L149.6,329.708l15.043,37.214,37.214-15.031-15.031-37.214h0ZM529.9,299.728a13.088,13.088,0,0,1-4.917-25.227,13.084,13.084,0,1,1,4.917,25.227h0Zm-.035-22.956a9.865,9.865,0,0,0-9.857,9.892,8.23,8.23,0,0,0,.047.936v.012h0v.012h0a.346.346,0,0,1-.211.351.363.363,0,0,1-.094.023l-2.2.2a12.413,12.413,0,1,0,22.254-8.99l-1.721,1.381s-.035.023-.058.035a.236.236,0,0,1-.129.035h-.023a.315.315,0,0,1-.176-.059.51.51,0,0,1-.082-.07,9.7,9.7,0,0,0-7.761-3.746h0Zm0-2.552a12.423,12.423,0,0,0-12.4,12.456,6.76,6.76,0,0,0,.035.843l1.873-.164a10.531,10.531,0,0,1,18.566-7.5l1.463-1.182a12.438,12.438,0,0,0-9.541-4.448h0Zm35.646,9.4a13.07,13.07,0,1,1,4.893-.948,13.246,13.246,0,0,1-4.893.96h0Zm-.023-22.956a9.857,9.857,0,0,0-9.857,9.857,9.222,9.222,0,0,0,.047.983.46.46,0,0,1-.07.246.32.32,0,0,1-.14.105.276.276,0,0,1-.094.023l-2.2.2a12.415,12.415,0,1,0,22.265-9.014l-1.721,1.393a.377.377,0,0,1-.082.047.421.421,0,0,1-.129.023.311.311,0,0,1-.258-.129h0a9.806,9.806,0,0,0-7.761-3.746h0Zm0-2.564a12.423,12.423,0,0,0-12.4,12.456,6.76,6.76,0,0,0,.035.843l1.873-.164a10.528,10.528,0,0,1,18.566-7.5l1.463-1.182a12.439,12.439,0,0,0-9.541-4.448Zm38.455,9.985a13.1,13.1,0,0,1-4.917-25.239,12.735,12.735,0,0,1,4.893-.948,13.088,13.088,0,0,1,.023,26.175h0Zm-.023-22.956a9.857,9.857,0,0,0-9.857,9.857,9.426,9.426,0,0,0,.047,1,.322.322,0,0,1-.211.339.275.275,0,0,1-.094.023l-2.2.2a12.884,12.884,0,0,0,.808,3.1,12.418,12.418,0,1,0,21.446-12.1l-1.709,1.381h0a.442.442,0,0,1-.094.059.421.421,0,0,1-.129.023.311.311,0,0,1-.258-.129,9.841,9.841,0,0,0-7.761-3.746h0Zm0-2.564a12.423,12.423,0,0,0-12.4,12.456,6.771,6.771,0,0,0,.035.843l1.873-.164a10.528,10.528,0,0,1,18.566-7.5l1.463-1.182a12.516,12.516,0,0,0-9.541-4.448ZM293.524,179.294a.5.5,0,0,1-.445-.293.465.465,0,0,1,.258-.609h0a.466.466,0,0,1,.644.433.485.485,0,0,1-.035.187.471.471,0,0,1-.433.293h0Zm0-.679a.206.206,0,0,0-.07.012.193.193,0,0,0-.117.117.174.174,0,0,0,0,.152.151.151,0,0,0,.152.094.266.266,0,0,0,.211-.105.144.144,0,0,0,.012-.152.2.2,0,0,0-.2-.129h0Zm167.833-30.764a4.5,4.5,0,0,1-.972-.117h-.047a2.3,2.3,0,0,1-.983-.527h-.023a1.5,1.5,0,0,1-.293-.468l-3.828-9.459L449.1,122.144h0a1.687,1.687,0,0,1-.105-.527h0v-.035a2.241,2.241,0,0,1,.34-1.054v-.012a4.541,4.541,0,0,1,.89-1.007c.012,0,.023-.023.035-.035a6.843,6.843,0,0,1,1.253-.831h0c.269-.152.515-.258.749-.363l101.224-40.9c.246-.094.5-.187.784-.269h0a7.077,7.077,0,0,1,1.487-.269h.035c.105,0,.222-.012.351-.012a4.153,4.153,0,0,1,1.007.117,2.063,2.063,0,0,1,.972.515c.012,0,.023.023.035.035a1.4,1.4,0,0,1,.293.445l9.939,24.607a1.365,1.365,0,0,1,.105.527v.035a2.241,2.241,0,0,1-.339,1.054.036.036,0,0,1-.012.023h0a4.248,4.248,0,0,1-.855.972h0v.023a6.445,6.445,0,0,1-1.3.866h-.012a6.3,6.3,0,0,1-.749.363L463.991,147.3a6.2,6.2,0,0,1-.784.269H463.2a7.682,7.682,0,0,1-1.534.281h-.035a2.857,2.857,0,0,1-.3.012h0Zm-5.022-9.646h0l3.325,8.218a.167.167,0,0,0,.023.047.582.582,0,0,0,.152.222h0v.012l.012.012a1.409,1.409,0,0,0,.644.328h.035a3.326,3.326,0,0,0,.843.105h.281a6.325,6.325,0,0,0,1.4-.258c.234-.07.468-.152.726-.258l101.224-40.9a5.309,5.309,0,0,0,.691-.328,7.306,7.306,0,0,0,1.194-.8h0a3.98,3.98,0,0,0,.726-.808c0-.012,0-.023.023-.035a1.4,1.4,0,0,0,.234-.714v-.023a.637.637,0,0,0-.059-.258c0-.012-.012-.035-.012-.047l-3.325-8.218h0a1.211,1.211,0,0,1-.082.14h0l-.012.035a3.9,3.9,0,0,1-.784.913.117.117,0,0,1-.059.047h-.012l-.012.023h0a.17.17,0,0,1-.023.035,7.541,7.541,0,0,1-1.311.878h-.035a5.825,5.825,0,0,1-.726.339L460.2,137.818a6.2,6.2,0,0,1-.784.269H459.4a8.617,8.617,0,0,1-1.534.281h-.339a4.249,4.249,0,0,1-1.018-.117h-.035a1.391,1.391,0,0,1-.164-.047h0Zm48.7-29.874-54.5,11.8a4.068,4.068,0,0,0-.585.691h0a.167.167,0,0,1-.023.047,1.479,1.479,0,0,0-.234.726h0v.023a.756.756,0,0,0,.047.234l6.1,15.089a.167.167,0,0,0,.023.047.731.731,0,0,0,.152.234l.012.012h0a1.431,1.431,0,0,0,.644.339h.023a3.558,3.558,0,0,0,.855.105h.094l47.387-29.359Zm56.623-12.257L507,107.909l-47.539,29.465a4.408,4.408,0,0,0,.492-.187l101.224-40.9c.187-.082.339-.14.48-.211h0Zm-7.375-18.262a3.762,3.762,0,0,0-.492.187L452.566,118.9a4.852,4.852,0,0,0-.48.211l54.668-11.835,47.539-29.465h0Zm1.92-.339h-.094l-47.4,29.371,54.493-11.8a3.843,3.843,0,0,0,.62-.749h0a1.484,1.484,0,0,0,.234-.737.743.743,0,0,0-.059-.269.07.07,0,0,0-.012-.047l-6.1-15.089a.638.638,0,0,0-.129-.211h0v-.012a1.374,1.374,0,0,0-.679-.363h-.047a3.211,3.211,0,0,0-.819-.105h0ZM411.746,131.5a.5.5,0,0,1-.445-.293.486.486,0,0,1,0-.363.467.467,0,0,1,.866,0,.489.489,0,0,1-.258.62.47.47,0,0,1-.176.035h0Zm0-.679a.264.264,0,0,0-.082.012.186.186,0,0,0-.105.105.174.174,0,0,0,0,.152.142.142,0,0,0,.152.094.266.266,0,0,0,.211-.105.144.144,0,0,0,.012-.152.2.2,0,0,0-.187-.129h0Z" transform="translate(0.002)" fill="#d6d6d6"/>
</svg>
