<svg id="Gruppe_615" data-name="Gruppe 615" xmlns="http://www.w3.org/2000/svg" xmlns:xlink="http://www.w3.org/1999/xlink" width="16.541" height="18.946" viewBox="0 0 16.541 18.946">
  <defs>
    <clipPath id="clip-path">
      <rect id="Rechteck_492" data-name="Rechteck 492" width="16.541" height="18.946" fill="#ba7912"/>
    </clipPath>
  </defs>
  <g id="Gruppe_614" data-name="Gruppe 614" clip-path="url(#clip-path)">
    <path id="Pfad_15148" data-name="Pfad 15148" d="M3.424,18.946a.542.542,0,0,1-.271-.536Q3.161,12.854,3.16,7.3c0-.164-.032-.24-.206-.294A1.95,1.95,0,0,1,1.579,5.148c-.005-.357-.008-.715,0-1.072,0-.128-.036-.176-.159-.213A1.967,1.967,0,0,1,1.355.1c.121-.041.247-.069.37-.1H14.836a5.283,5.283,0,0,1,.555.183,1.966,1.966,0,0,1-.24,3.671c-.151.045-.182.114-.18.257.005.394.017.79-.015,1.182A1.936,1.936,0,0,1,13.51,7.035c-.035.01-.069.025-.114.042V7.3q0,5.566,0,11.132a.5.5,0,0,1-.3.518h-.222a.542.542,0,0,1-.271-.537q.008-5.522,0-11.043V7.117H3.941v.231q0,5.54,0,11.08a.5.5,0,0,1-.3.518ZM8.262,3.155V3.148q3.175,0,6.35,0a1.088,1.088,0,0,0,1.034-.679,1.12,1.12,0,0,0-.162-1.247A1.232,1.232,0,0,0,14.452.785Q8.278.789,2.1.787a2.091,2.091,0,0,0-.294.018A1.166,1.166,0,0,0,.8,1.905a1.161,1.161,0,0,0,.916,1.217,2.642,2.642,0,0,0,.551.031q3,0,6,0m5.9.809H2.376c0,.443-.031.876.007,1.3A1.122,1.122,0,0,0,3.525,6.305c1.163.012,2.325.013,3.488.013q3.018,0,6.035-.012a1.11,1.11,0,0,0,1.105-.955,13,13,0,0,0,.01-1.387" transform="translate(0)" fill="#ba7912"/>
    <path id="Pfad_15149" data-name="Pfad 15149" d="M159.983,186.377a.541.541,0,0,1-.271-.536q.008-4.613,0-9.227c0-.317.127-.484.372-.493a.387.387,0,0,1,.408.346,1.319,1.319,0,0,1,0,.166q0,4.613,0,9.227a.494.494,0,0,1-.3.518Z" transform="translate(-151.832 -167.431)" fill="#ba7912"/>
  </g>
</svg>
