<svg id="Gruppe_606" data-name="Gruppe 606" xmlns="http://www.w3.org/2000/svg" xmlns:xlink="http://www.w3.org/1999/xlink" width="21.463" height="21.463" viewBox="0 0 21.463 21.463">
  <defs>
    <clipPath id="clip-path">
      <rect id="Rechteck_365" data-name="Rechteck 365" width="21.463" height="21.462" fill="#ba7912"/>
    </clipPath>
  </defs>
  <g id="Gruppe_440" data-name="Gruppe 440" clip-path="url(#clip-path)">
    <path id="Pfad_7075" data-name="Pfad 7075" d="M10.1,21.462c-.407-.055-.817-.1-1.221-.167a10.536,10.536,0,0,1-6.2-3.478,10.375,10.375,0,0,1-2.629-6A10.443,10.443,0,0,1,2.2,4.228,10.423,10.423,0,0,1,8.526.234,15.91,15.91,0,0,1,10.707,0a.774.774,0,0,1,.824.747.784.784,0,0,1-.738.853c-.623.07-1.257.084-1.871.2a8.7,8.7,0,0,0-4.2,2.089,8.825,8.825,0,0,0-2.98,5.385,8.867,8.867,0,0,0,2.1,7.391A8.611,8.611,0,0,0,8.37,19.524a8.868,8.868,0,0,0,8.445-2.035,8.815,8.815,0,0,0,2.914-5.33c.075-.453.08-.917.111-1.377a.816.816,0,0,1,.937-.851.862.862,0,0,1,.686.627v.8c-.017.151-.035.3-.052.453a10.606,10.606,0,0,1-2.7,6.075A10.526,10.526,0,0,1,12.579,21.3c-.4.072-.813.112-1.22.167Z" transform="translate(0 0)" fill="#ba7912"/>
    <path id="Pfad_7076" data-name="Pfad 7076" d="M102.064,61.292a1.908,1.908,0,0,1,.166-.23q4.7-4.7,9.407-9.389a.887.887,0,0,1,.817-.324.8.8,0,0,1,.487,1.3,2.275,2.275,0,0,1-.172.183L102.707,62.868a.843.843,0,0,1-1.4-.025q-1.953-2.12-3.9-4.241a.815.815,0,0,1,.051-1.249.793.793,0,0,1,1,.026,2.241,2.241,0,0,1,.192.192L101.9,61.1c.042.045.08.094.159.189" transform="translate(-92.039 -48.641)" fill="#ba7912"/>
  </g>
</svg>
