<svg xmlns="http://www.w3.org/2000/svg" width="19" height="19" viewBox="0 0 19 19">
  <g id="Gruppe_618" data-name="Gruppe 618" transform="translate(-977 -3969)">
    <g id="Ellipse_8" data-name="Ellipse 8" transform="translate(977 3969)" fill="#f8f8f8" stroke="#ba7912" stroke-width="1">
      <circle cx="9.5" cy="9.5" r="9.5" stroke="none"/>
      <circle cx="9.5" cy="9.5" r="9" fill="none"/>
    </g>
    <path id="Icon_ionic-ios-checkmark" data-name="Icon ionic-ios-checkmark" d="M18.447,12.928l-.658-.677a.142.142,0,0,0-.1-.045h0a.136.136,0,0,0-.1.045l-4.564,4.6-1.661-1.661a.145.145,0,0,0-.209,0l-.666.666a.149.149,0,0,0,0,.213l2.095,2.095a.662.662,0,0,0,.438.213.694.694,0,0,0,.434-.206h0l5-5.027A.16.16,0,0,0,18.447,12.928Z" transform="translate(972.038 3963.21)" fill="#ba7912"/>
  </g>
</svg>
