<svg id="Gruppe_495" data-name="Gruppe 495" xmlns="http://www.w3.org/2000/svg" xmlns:xlink="http://www.w3.org/1999/xlink" width="20.806" height="20.793" viewBox="0 0 20.806 20.793">
  <defs>
    <clipPath id="clip-path">
      <rect id="Rechteck_379" data-name="Rechteck 379" width="20.806" height="20.793" fill="#ba7912"/>
    </clipPath>
  </defs>
  <g id="Gruppe_494" data-name="Gruppe 494" clip-path="url(#clip-path)">
    <path id="Pfad_7089" data-name="Pfad 7089" d="M10.417,0A10.4,10.4,0,1,1,9.242,20.729a10.07,10.07,0,0,1-4.266-1.465.572.572,0,0,0-.467-.089c-.872.212-1.746.417-2.619.624a.712.712,0,0,1-.9-.562,1.268,1.268,0,0,1,.047-.467c.193-.838.4-1.672.586-2.512a.6.6,0,0,0-.073-.4A10.4,10.4,0,0,1,4.993,1.514,10.153,10.153,0,0,1,10.417,0M2.724,18.067c.087-.015.144-.023.2-.034.517-.106,1.033-.222,1.552-.315a1.5,1.5,0,0,1,1.1.207,8.75,8.75,0,0,0,8.2.755A8.942,8.942,0,1,0,4.834,3.4a8.619,8.619,0,0,0-3.369,6.723A8.691,8.691,0,0,0,2.9,15.277,1.079,1.079,0,0,1,3.1,16c-.044.367-.1.733-.164,1.1-.058.316-.139.627-.216.967" transform="translate(0.076 -0.025)" fill="#ba7912"/>
    <path id="Pfad_7090" data-name="Pfad 7090" d="M87.528,96.807c-.389,0-.771.007-1.153,0a.6.6,0,0,1-.567-.454.58.58,0,0,1,.242-.665.988.988,0,0,1,.44-.12c.415-.016.831-.005,1.271-.005.053-.29.106-.574.158-.859.017-.1.03-.193.048-.288a.626.626,0,1,1,1.232.219c-.043.243-.089.485-.131.729-.01.057-.012.115-.02.2h.376c.345,0,.69-.014,1.033.005.188.01.244-.062.268-.23.045-.315.1-.628.164-.94a.622.622,0,1,1,1.223.216c-.025.154-.054.307-.081.461s-.05.307-.08.488h.219c.4,0,.793-.006,1.19,0a.624.624,0,1,1-.01,1.245q-.731.006-1.463,0c-.117,0-.168.027-.189.156-.108.659-.23,1.316-.351,2,.079.005.141.012.2.012.332,0,.663,0,.995,0a.622.622,0,1,1,.017,1.243c-.4.013-.806,0-1.209,0h-.225c-.069.391-.139.767-.2,1.144a.668.668,0,0,1-.457.6.61.61,0,0,1-.794-.641c.025-.29.092-.577.14-.865.011-.069.02-.139.032-.223H88.212c-.07.395-.14.783-.208,1.172a.628.628,0,1,1-1.229-.221c.057-.312.109-.625.168-.963-.384,0-.752,0-1.121,0a2.155,2.155,0,0,1-.35-.017.61.61,0,0,1-.515-.672.6.6,0,0,1,.6-.556q.712-.013,1.424,0c.147,0,.2-.041.222-.189.1-.622.217-1.241.327-1.861a.819.819,0,0,0,0-.119m.906,2.165c.532,0,1.038,0,1.544-.007.044,0,.112-.092.125-.15.061-.286.107-.574.157-.862.065-.374.129-.749.2-1.143-.531,0-1.037,0-1.543.005a.173.173,0,0,0-.118.114c-.123.67-.238,1.341-.361,2.043" transform="translate(-78.879 -87.89)" fill="#ba7912"/>
  </g>
</svg>
