<svg id="Gruppe_499" data-name="Gruppe 499" xmlns="http://www.w3.org/2000/svg" xmlns:xlink="http://www.w3.org/1999/xlink" width="21.958" height="19.31" viewBox="0 0 21.958 19.31">
  <defs>
    <clipPath id="clip-path">
      <rect id="Rechteck_381" data-name="Rechteck 381" width="21.958" height="19.31" fill="#ba7912"/>
    </clipPath>
  </defs>
  <g id="Gruppe_498" data-name="Gruppe 498" clip-path="url(#clip-path)">
    <path id="Pfad_7093" data-name="Pfad 7093" d="M0,16.257v-.343a1.854,1.854,0,0,1,.236-.321A8.165,8.165,0,0,0,1.881,13.52,15.179,15.179,0,0,0,3.852,6.13c.029-1.372.006-2.744.008-4.117a.655.655,0,0,1,.73-.727H7.763c0-.209,0-.388,0-.566A.647.647,0,1,1,9.049.713c0,.189,0,.379,0,.561h3.217c0-.2,0-.381,0-.565a.646.646,0,1,1,1.286,0c0,.19,0,.38,0,.566h3.26c0-.209,0-.4,0-.595a.643.643,0,1,1,1.285,0c0,.2,0,.4,0,.613h.252c.915,0,1.83.013,2.744-.006a.816.816,0,0,1,.864.478V18.831a.826.826,0,0,1-.863.477q-8.131-.013-16.262,0c-.733,0-1.018-.234-.979-.985.027-.525.005-1.052.005-1.6H3.606c-.921,0-1.843-.012-2.764.006A.8.8,0,0,1,0,16.257m2.117-.815h.223q7.344,0,14.687-.006a.482.482,0,0,0,.308-.136,9.633,9.633,0,0,0,1.558-2.142,14.526,14.526,0,0,0,1.644-5.217c.063-.493.09-.99.135-1.494H5.139a15.664,15.664,0,0,1-3.023,8.995M5.156,5.132h15.5V2.585H18.1c0,.2,0,.394,0,.586a.644.644,0,1,1-1.285.007c0-.2,0-.394,0-.588h-3.26c0,.209,0,.4,0,.594a.643.643,0,1,1-1.285,0c0-.2,0-.4,0-.6H9.049c0,.2,0,.383,0,.567a.646.646,0,1,1-1.286,0c0-.19,0-.379,0-.567H5.156Zm15.508,7.414-.028-.014-.1.2a12.372,12.372,0,0,1-2.5,3.688,1.021,1.021,0,0,1-.766.308q-5.928-.01-11.856,0H5.158V18H20.664Z" transform="translate(0 0)" fill="#ba7912"/>
  </g>
</svg>
