<svg id="Gruppe_610" data-name="Gruppe 610" xmlns="http://www.w3.org/2000/svg" xmlns:xlink="http://www.w3.org/1999/xlink" width="20.282" height="23.166" viewBox="0 0 20.282 23.166">
  <defs>
    <clipPath id="clip-path">
      <rect id="Rechteck_386" data-name="Rechteck 386" width="20.282" height="23.166" fill="#ba7912"/>
    </clipPath>
  </defs>
  <g id="Gruppe_502" data-name="Gruppe 502" clip-path="url(#clip-path)">
    <path id="Pfad_7095" data-name="Pfad 7095" d="M20.281,8.144a1.013,1.013,0,0,0-.44-.88Q15.3,3.786,10.771.3c-.142-.109-.3-.2-.449-.3H9.96c-.472.346-.952.683-1.416,1.04Q4.473,4.164.405,7.293a.954.954,0,0,0-.4.829q.01,7.056,0,14.111a.886.886,0,0,0,.549.933H8.111v-7.79h3.863v7.79h7.76a.891.891,0,0,0,.549-.933q-.015-7.044,0-14.089M18.828,21.531V21.7h-5.4V14.525a.6.6,0,0,0-.6-.6H7.26a.6.6,0,0,0-.6.6V21.7h-5.2v-.26q0-6.435,0-12.869a.456.456,0,0,1,.207-.408Q5.809,4.979,9.95,1.778a.255.255,0,0,1,.381,0Q14.491,4.99,18.66,8.192a.356.356,0,0,1,.173.311q-.008,6.514,0,13.027" transform="translate(0)" fill="#ba7912"/>
  </g>
</svg>
