<svg xmlns="http://www.w3.org/2000/svg" xmlns:xlink="http://www.w3.org/1999/xlink" width="60.792" height="60.57" viewBox="0 0 60.792 60.57">
  <defs>
    <clipPath id="clip-path">
      <rect id="Rechteck_9" data-name="Rechteck 9" width="60.792" height="60.57" fill="#071825"/>
    </clipPath>
  </defs>
  <g id="Gruppe_311" data-name="Gruppe 311" transform="translate(0 0.001)">
    <path id="Pfad_31" data-name="Pfad 31" d="M58.663,0V.251h44.1V48.774h.252V0Z" transform="translate(-42.221 0)" fill="#071825"/>
    <path id="Pfad_32" data-name="Pfad 32" d="M0,42.295V91.01H44.35v-.252H.252V42.295Z" transform="translate(0 -30.441)" fill="#071825"/>
    <g id="Gruppe_13" data-name="Gruppe 13" transform="translate(0 -0.001)">
      <g id="Gruppe_12" data-name="Gruppe 12" clip-path="url(#clip-path)">
        <path id="Pfad_33" data-name="Pfad 33" d="M88.923,51.548V51.3l-5.007,0v.239a1.835,1.835,0,0,1,.957,1.765V64.5c0,4.464-1.277,7.281-4.611,7.511A5.268,5.268,0,0,1,79.592,72a6.449,6.449,0,0,1-6.1-6.868l.01-3.511,7.2-19.384-.276-.1-3.438,9.254a11.418,11.418,0,0,0-6.039-2.179,6.291,6.291,0,0,0-4.8,1.716A5,5,0,0,0,64.6,54.482c0,2.4,1.354,3.811,3.142,4.828,1.716.977,3.712,1.559,5.424,2.362l-2.84,7.645c-3.17-.5-5.374-2.849-6.7-5.484l-.008-.015h-.244l-.891,3.364.015.011a11.682,11.682,0,0,0,7.558,2.85L66.72,79.014l.279.1,3.624-9.755h0l2.6-6.988V65.2c0,4.111,2.772,7.138,6.737,7.209l.439,0c4.024-.192,7.62-2.2,7.62-7.91L87.965,53.3a1.792,1.792,0,0,1,.958-1.754M65.751,53.3q0-.177.018-.366C65.944,51.2,67.6,49.58,70.5,49.58c2.1,0,3.978,1.106,5.571,4.279l-1.675,4.509c-2.111-.656-3.4-1.052-5.38-1.73-1.81-.621-3.261-1.586-3.261-3.334" transform="translate(-44.969 -30.323)" fill="#071825"/>
      </g>
    </g>
  </g>
</svg>
