<svg id="Gruppe_312" data-name="Gruppe 312" xmlns="http://www.w3.org/2000/svg" xmlns:xlink="http://www.w3.org/1999/xlink" width="308.037" height="84.056" viewBox="0 0 308.037 84.056">
  <defs>
    <clipPath id="clip-path">
      <rect id="Rechteck_45" data-name="Rechteck 45" width="308.037" height="84.056" fill="#fff"/>
    </clipPath>
  </defs>
  <path id="Pfad_34" data-name="Pfad 34" d="M462.405,61.77v.444h1.832v20.3l-14.6-20.745h-7.218v.4h1.832V89.234h-1.832v.323h4.264v-.323h-1.949l-.008-25.145,18.142,25.469h1.855V62.214h2.069V61.77Z" transform="translate(-239.149 -33.39)" fill="#fff"/>
  <g id="Gruppe_20" data-name="Gruppe 20">
    <g id="Gruppe_19" data-name="Gruppe 19" clip-path="url(#clip-path)">
      <path id="Pfad_35" data-name="Pfad 35" d="M527.157,77.524A13.019,13.019,0,0,0,525.041,76a12.273,12.273,0,0,0-1.824-.78c-.608-.218-1.087-.366-1.091-.366l-.21-.062.69-.16a7.334,7.334,0,0,0,3.812-2.225,5.588,5.588,0,0,0,1.4-3.964,5.99,5.99,0,0,0-.577-2.759,5.507,5.507,0,0,0-1.5-1.863,7.171,7.171,0,0,0-2.171-1.169,14.781,14.781,0,0,0-2.646-.627,23.289,23.289,0,0,0-2.728-.242q-1.38-.043-2.557-.043h-8.55v.39h1.586V89.2h-1.586v.323h10.826a31.566,31.566,0,0,0,3.9-.246,11.417,11.417,0,0,0,3.59-1.021A6.631,6.631,0,0,0,528.027,86a6.82,6.82,0,0,0,1.009-3.94,6.525,6.525,0,0,0-.495-2.662,5.564,5.564,0,0,0-1.384-1.878M513.478,62.2h.039c.694-.058,1.341-.082,1.949-.082a21.523,21.523,0,0,1,2.642.16,6.1,6.1,0,0,1,2.584.779,4.819,4.819,0,0,1,1.426,1.337,5.376,5.376,0,0,1,.869,2.467,6.386,6.386,0,0,1,.074,1.014c0,.339-.019.655-.043.978a6.589,6.589,0,0,1-.444,2.2,5.526,5.526,0,0,1-1.208,1.793,6.759,6.759,0,0,1-1.668,1.275,3.851,3.851,0,0,1-1.758.456c-.3.031-4.431.027-4.431.027l-.028-12.346Zm10.406,20.168a7.557,7.557,0,0,1-.542,2.88,7.308,7.308,0,0,1-.885,1.516,7.182,7.182,0,0,1-1.442,1.278,7.325,7.325,0,0,1-1.5.733,8.069,8.069,0,0,1-2.783.452h-3.258V74.944l4.361-.027a6.106,6.106,0,0,1,1.605.207,5.772,5.772,0,0,1,.612.226,6.666,6.666,0,0,1,1.006.514,4.663,4.663,0,0,1,1.076.99,7.482,7.482,0,0,1,1.3,2.4,8.591,8.591,0,0,1,.448,2.775,3.2,3.2,0,0,0-.019.343Z" transform="translate(-274.107 -33.376)" fill="#fff"/>
      <path id="Pfad_36" data-name="Pfad 36" d="M639.4,69.791V62.214h1.914V61.77H637.38v.444h1.559v15.41a26.473,26.473,0,0,1-.308,3.878,12.783,12.783,0,0,1-1.325,4.026,7.373,7.373,0,0,1-2.607,2.794,7.487,7.487,0,0,1-4.061,1.036,5.8,5.8,0,0,1-5.553-3.188,10.526,10.526,0,0,1-1.048-3.254,23.773,23.773,0,0,1-.292-3.78V62.214h1.832V61.77h-9.03v.444h1.8V79.257a15.333,15.333,0,0,0,.924,5.292,8.359,8.359,0,0,0,2.3,3.336,8.653,8.653,0,0,0,3.507,1.758,18.813,18.813,0,0,0,4.591.522,10.853,10.853,0,0,0,4.006-.658,7.976,7.976,0,0,0,2.728-1.738,8.1,8.1,0,0,0,1.688-2.455,14.121,14.121,0,0,0,.928-2.853,17.553,17.553,0,0,0,.366-2.9q.059-1.438.058-2.572V73.392c0-1.177-.043-2.385-.043-3.6" transform="translate(-333.275 -33.39)" fill="#fff"/>
      <path id="Pfad_37" data-name="Pfad 37" d="M583.6,89.234,573.12,61.77h-1.263l-9.891,27.464h-1.415v.316h4.237v-.323h-2.3l3.153-8.824h9.057l3.243,8.82h-2v.323h8.924v-.323H583.6Zm-17.771-9.221h-.082l.027-.078s3.664-10.1,4.318-11.875l.055-.152,4.4,12.105Z" transform="translate(-303.008 -33.39)" fill="#fff"/>
      <path id="Pfad_38" data-name="Pfad 38" d="M397.028,62.23v-.058h2.113v-.4h-8.808v.4h2.03V75.137H379.517V62.171h2.074v-.4h-9.3v.4h2.073V89.233h-2.073v.323h9.3v-.323h-2.074V75.621h12.845V89.233h-2.03v.323h8.812v-.323h-2.116Z" transform="translate(-201.244 -33.39)" fill="#fff"/>
      <path id="Pfad_39" data-name="Pfad 39" d="M267.713,61.77h-4.225v.39h1.87l-7.884,21.135-7.51-21.135h5.674v-.39l-22.019.039v.347h1.427l10.016,27.4h.74l4.646-14.186,4.731,14.186h.464l10.246-27.4h1.824ZM247.447,83.162l-.051.16-7.642-21.166h5.67v.039l.249.717.616,1.746c.483,1.372,1.068,3.017,1.473,4.116q1.208,3.312,2.272,6.372v.046Z" transform="translate(-126.284 -33.39)" fill="#fff"/>
      <path id="Pfad_40" data-name="Pfad 40" d="M333.308,74.21h0v-.822a14.165,14.165,0,0,0-.83-4.163,16.594,16.594,0,0,0-2.6-4.727,15.016,15.016,0,0,0-4.108-3.663,9.634,9.634,0,0,0-4.985-1.466h-.643a9.618,9.618,0,0,0-4.985,1.466,14.968,14.968,0,0,0-4.107,3.663,16.6,16.6,0,0,0-2.607,4.727,14.26,14.26,0,0,0-.826,4.163v1.087a15.213,15.213,0,0,0,.351,3.246,14.206,14.206,0,0,0,1.142,3.289,14.779,14.779,0,0,0,4.38,5.355,13.188,13.188,0,0,0,3.367,1.863,9.915,9.915,0,0,0,3.079.62h1.056a9.916,9.916,0,0,0,3.079-.62,13.333,13.333,0,0,0,3.367-1.863,14.8,14.8,0,0,0,4.384-5.355,14.2,14.2,0,0,0,1.138-3.289,15.242,15.242,0,0,0,.351-3.246V74.21Zm-5.289,3.227a35.593,35.593,0,0,1-.628,3.757,16.021,16.021,0,0,1-1.231,3.4,7.172,7.172,0,0,1-2.081,2.572,5.374,5.374,0,0,1-1.746.873,6.042,6.042,0,0,1-3.761,0,5.333,5.333,0,0,1-1.739-.873,7.158,7.158,0,0,1-2.081-2.572,15.829,15.829,0,0,1-1.232-3.4,34.645,34.645,0,0,1-.627-3.757,33.314,33.314,0,0,1-.051-6.056,25.324,25.324,0,0,1,.39-3.324,22.66,22.66,0,0,1,.865-3.266,9.492,9.492,0,0,1,1.457-2.747,6.056,6.056,0,0,1,1.968-1.656,5.094,5.094,0,0,1,2.377-.651s.39-.028.534-.023c.129,0,.534.023.534.023a5.108,5.108,0,0,1,2.378.651,6.055,6.055,0,0,1,1.949,1.656,9.491,9.491,0,0,1,1.457,2.747,22.723,22.723,0,0,1,.865,3.266,25.417,25.417,0,0,1,.39,3.324A29.508,29.508,0,0,1,328.019,77.437Z" transform="translate(-166.281 -32.092)" fill="#fff"/>
      <path id="Pfad_41" data-name="Pfad 41" d="M110.857,67.684h.35V0H49.659v.35h61.2Z" transform="translate(-26.843 0)" fill="#fff"/>
      <path id="Pfad_42" data-name="Pfad 42" d="M61.547,103.058H.35V35.8H0v67.607H61.547Z" transform="translate(0 -19.352)" fill="#fff"/>
      <path id="Pfad_43" data-name="Pfad 43" d="M89.6,48.744v-.35H82.653v.35a2.564,2.564,0,0,1,1.326,2.45V66.714c0,6.2-1.773,10.112-6.4,10.424a7.467,7.467,0,0,1-.929,0c-4.894-.416-8.464-3.925-8.464-9.529V62.735l9.989-26.9-.389-.144L73.015,48.526A15.813,15.813,0,0,0,64.637,45.5c-3.287,0-5.169.941-6.655,2.38a6.941,6.941,0,0,0-2.131,4.94c0,3.329,1.882,5.285,4.364,6.7,2.38,1.358,5.149,2.163,7.526,3.279L63.789,73.4c-4.4-.692-7.456-3.952-9.3-7.608v-.023h-.339L52.918,70.44h.019c3.112,2.334,5.835,3.889,10.5,3.955L58.815,86.842l.389.144,5.03-13.539,3.605-9.7v3.92c0,5.7,3.847,9.9,9.335,10h.611c5.585-.268,10.576-3.057,10.576-10.98l-.07-15.531A2.468,2.468,0,0,1,89.6,48.744M57.445,51.179a3.739,3.739,0,0,1,.023-.506c.245-2.407,2.544-4.667,6.561-4.667,2.917,0,5.519,1.532,7.728,5.935L69.425,58.2c-2.933-.91-4.726-1.458-7.468-2.4-2.5-.832-4.512-2.19-4.512-4.617Z" transform="translate(-28.605 -19.293)" fill="#fff"/>
    </g>
  </g>
</svg>
