<svg xmlns="http://www.w3.org/2000/svg" xmlns:xlink="http://www.w3.org/1999/xlink" width="44.621" height="62.468" viewBox="0 0 44.621 62.468">
  <defs>
    <clipPath id="clip-path">
      <rect id="Rectangle_656" data-name="Rectangle 656" width="44.621" height="62.468" transform="translate(0 0)" fill="none"/>
    </clipPath>
  </defs>
  <g id="Group_661" data-name="Group 661" transform="translate(0 0)">
    <g id="Group_660" data-name="Group 660" clip-path="url(#clip-path)">
      <path id="Path_15181" data-name="Path 15181" d="M22.311,0A22.154,22.154,0,0,0,0,21.865c0,16.4,22.311,40.6,22.311,40.6s22.31-24.206,22.31-40.6A22.154,22.154,0,0,0,22.311,0M32.573,16.819l.043,9.367c0,4.776-3.009,6.458-6.376,6.619h-.368c-.1,0-.2,0-.3-.01a5.688,5.688,0,0,1-5.334-6.022V24.412l-2.173,5.847-3.032,8.163-.233-.088,2.787-7.5a9.779,9.779,0,0,1-6.325-2.386l-.012-.008.745-2.815h.2l.007.012a7.859,7.859,0,0,0,5.606,4.59l2.373-6.4c-1.428-.671-3.1-1.159-4.534-1.976a4.459,4.459,0,0,1-2.629-4.04,4.186,4.186,0,0,1,1.3-2.98,5.265,5.265,0,0,1,4.014-1.435,9.555,9.555,0,0,1,5.054,1.823l2.877-7.744.231.087L20.471,23.777l-.008,2.938c0,.025,0,.051,0,.076a5.4,5.4,0,0,0,5.108,5.669,4.345,4.345,0,0,0,.559.008c2.79-.193,3.859-2.55,3.859-6.286V16.815a1.535,1.535,0,0,0-.8-1.477v-.2h4.19v.213a1.5,1.5,0,0,0-.8,1.468" fill="#ba7912"/>
      <path id="Path_15182" data-name="Path 15182" d="M22.611,17.284c-1.33-2.655-2.9-3.58-4.66-3.58-2.423,0-3.809,1.36-3.954,2.811a2.934,2.934,0,0,0-.016.306l0,.005c0,1.462,1.218,2.269,2.729,2.789,1.654.566,2.739.9,4.5,1.447Z" fill="#ba7912"/>
    </g>
  </g>
</svg>
