<svg id="Gruppe_611" data-name="Gruppe 611" xmlns="http://www.w3.org/2000/svg" xmlns:xlink="http://www.w3.org/1999/xlink" width="17.374" height="23.165" viewBox="0 0 17.374 23.165">
  <defs>
    <clipPath id="clip-path">
      <rect id="Rechteck_366" data-name="Rechteck 366" width="17.374" height="23.165" fill="#ba7912"/>
    </clipPath>
  </defs>
  <g id="Gruppe_442" data-name="Gruppe 442" clip-path="url(#clip-path)">
    <path id="Pfad_7077" data-name="Pfad 7077" d="M8.51,23.165a9.811,9.811,0,0,1-.775-.675,41.609,41.609,0,0,1-5.164-6.629A18.858,18.858,0,0,1,.377,11.142,8.423,8.423,0,0,1,2.006,3.15,8.224,8.224,0,0,1,7.543.079a8.4,8.4,0,0,1,7.579,2.784,8.355,8.355,0,0,1,2.245,6.189,10.71,10.71,0,0,1-1,3.852,26.925,26.925,0,0,1-2.941,5.025,43.849,43.849,0,0,1-4.02,4.8,5.222,5.222,0,0,1-.538.431Zm.178-1.714a1.9,1.9,0,0,1,.127-.193,43.982,43.982,0,0,0,4.131-5.177,19.283,19.283,0,0,0,2.694-5.422,7.1,7.1,0,0,0,.145-3.445A7.246,7.246,0,0,0,9.923,1.548,7.013,7.013,0,0,0,5.685,2.1,7.112,7.112,0,0,0,2.058,5.787a6.837,6.837,0,0,0-.533,3.845,12.3,12.3,0,0,0,1.321,3.78,29.23,29.23,0,0,0,3.341,5.045c.8.989,1.632,1.956,2.5,2.994" transform="translate(0 0)" fill="#ba7912"/>
    <path id="Pfad_7078" data-name="Pfad 7078" d="M85.347,80.766a4.345,4.345,0,1,1-4.341-4.355,4.359,4.359,0,0,1,4.341,4.355M83.9,80.76A2.9,2.9,0,1,0,81,83.653a2.905,2.905,0,0,0,2.9-2.892" transform="translate(-72.31 -72.078)" fill="#ba7912"/>
  </g>
</svg>
