<svg id="Gruppe_76" data-name="Gruppe 76" xmlns="http://www.w3.org/2000/svg" xmlns:xlink="http://www.w3.org/1999/xlink" width="28.936" height="28.936" viewBox="0 0 28.936 28.936">
  <defs>
    <clipPath id="clip-path">
      <rect id="Rechteck_147" data-name="Rechteck 147" width="28.936" height="28.936" fill="#fff"/>
    </clipPath>
  </defs>
  <g id="Gruppe_75" data-name="Gruppe 75" transform="translate(0)" clip-path="url(#clip-path)">
    <path id="Pfad_2364" data-name="Pfad 2364" d="M18.9,0H10.038A10.038,10.038,0,0,0,0,10.037V18.9A10.038,10.038,0,0,0,10.038,28.935H18.9A10.038,10.038,0,0,0,28.936,18.9V10.037A10.038,10.038,0,0,0,18.9,0M9.849,17.84c-.692-.028-1.386,0-2.079-.013a.573.573,0,0,1-.349-.13c-.146-.133-.1-.3-.009-.464Q7.99,16.216,8.563,15.2c.437-.774.872-1.548,1.313-2.32a.23.23,0,0,0,0-.264q-.746-1.279-1.482-2.563c-.03-.052-.06-.1-.086-.158a.323.323,0,0,1,.306-.505c.409-.007.819,0,1.228,0h0c.382,0,.764,0,1.146,0a.717.717,0,0,1,.649.342c.165.257.316.522.468.787.4.694.794,1.392,1.2,2.084a.252.252,0,0,1,0,.293q-1.238,2.184-2.464,4.375a.987.987,0,0,1-.987.576M21.494,6.711q-2.6,4.606-5.212,9.211a.287.287,0,0,0,0,.324c1.086,1.979,2.161,3.963,3.255,5.938.245.442.066.687-.394.671-.7-.024-1.408-.019-2.112,0a.876.876,0,0,1-.866-.518c-.414-.774-.838-1.542-1.259-2.313q-1.037-1.9-2.077-3.8a.239.239,0,0,1,0-.265q2.63-4.657,5.255-9.318a1.01,1.01,0,0,1,.605-.557h2.686c.269.194.292.319.114.634" transform="translate(0 0.001)" fill="#fff"/>
  </g>
</svg>
