<svg id="Group_425" data-name="Group 425" xmlns="http://www.w3.org/2000/svg" xmlns:xlink="http://www.w3.org/1999/xlink" width="28.936" height="28.936" viewBox="0 0 28.936 28.936">
  <defs>
    <clipPath id="clip-path">
      <rect id="Rectangle_145" data-name="Rectangle 145" width="28.936" height="28.936" fill="#071825"/>
    </clipPath>
  </defs>
  <g id="Group_71" data-name="Group 71" clip-path="url(#clip-path)">
    <path id="Path_2360" data-name="Path 2360" d="M86.924,73.067A3.112,3.112,0,0,0,83.97,71.2c-3.161-.011-6.323,0-9.484,0a4.046,4.046,0,0,0-.558.044,3.141,3.141,0,0,0-2.662,2.986c-.021,3.261-.009,6.522-.01,9.784a2.828,2.828,0,0,0,.282,1.266,3.136,3.136,0,0,0,3,1.877q4.686.007,9.372,0a4.713,4.713,0,0,0,.633-.045A3.16,3.16,0,0,0,87.2,84.153c.022-1.658.005-3.317.005-4.976h.007c0-1.559,0-3.118,0-4.677a3.148,3.148,0,0,0-.289-1.434M79.2,83.966A4.789,4.789,0,1,1,84.021,79.2,4.8,4.8,0,0,1,79.2,83.966m5.232-8.787a1.194,1.194,0,0,1-.018-2.388,1.194,1.194,0,1,1,.018,2.388" transform="translate(-64.764 -64.711)" fill="#071825"/>
    <path id="Path_2361" data-name="Path 2361" d="M127.041,123.83a3.189,3.189,0,1,0,3.186,3.187,3.184,3.184,0,0,0-3.186-3.187" transform="translate(-112.57 -112.552)" fill="#071825"/>
    <path id="Path_2362" data-name="Path 2362" d="M18.9,0H10.037A10.038,10.038,0,0,0,0,10.037V18.9A10.038,10.038,0,0,0,10.037,28.935H18.9A10.038,10.038,0,0,0,28.935,18.9V10.037A10.038,10.038,0,0,0,18.9,0m5.15,19.63a10.518,10.518,0,0,1-.232,1.073,4.78,4.78,0,0,1-4.588,3.34q-4.761.013-9.521,0a4.617,4.617,0,0,1-2.784-.886,4.748,4.748,0,0,1-2.033-4.041q0-4.63,0-9.259a5.38,5.38,0,0,1,.072-.949A4.657,4.657,0,0,1,7.951,5.227,9.644,9.644,0,0,1,9.3,4.886H19.631c.134.024.269.046.4.071A4.684,4.684,0,0,1,23.7,7.935,9.559,9.559,0,0,1,24.047,9.3Z" transform="translate(0.001 0.001)" fill="#071825"/>
  </g>
</svg>
