<svg id="Group_426" data-name="Group 426" xmlns="http://www.w3.org/2000/svg" xmlns:xlink="http://www.w3.org/1999/xlink" width="28.936" height="28.936" viewBox="0 0 28.936 28.936">
  <defs>
    <clipPath id="clip-path">
      <rect id="Rectangle_146" data-name="Rectangle 146" width="28.936" height="28.936" fill="#071825"/>
    </clipPath>
  </defs>
  <g id="Group_73" data-name="Group 73" transform="translate(0)" clip-path="url(#clip-path)">
    <path id="Path_2363" data-name="Path 2363" d="M18.9,0H10.038A10.038,10.038,0,0,0,0,10.037V18.9A10.038,10.038,0,0,0,10.038,28.935H18.9A10.038,10.038,0,0,0,28.936,18.9V10.037A10.038,10.038,0,0,0,18.9,0M9.95,22.164H6.584V11.29H9.95ZM8.278,9.791A1.969,1.969,0,0,1,8.25,5.852a1.969,1.969,0,0,1,.027,3.938M22.624,22.137H19.245v-.226c0-1.78,0-3.56-.007-5.339a6.931,6.931,0,0,0-.108-1.207,1.566,1.566,0,0,0-1.969-1.37,1.73,1.73,0,0,0-1.613,1.688,8.247,8.247,0,0,0-.08,1.13c-.008,1.7,0,3.4,0,5.1v.257H12.1V11.293h3.222v1.465c.045-.025.066-.03.074-.043a3.516,3.516,0,0,1,3.087-1.691,4.677,4.677,0,0,1,2.174.393A3.132,3.132,0,0,1,22.32,13.49a7.922,7.922,0,0,1,.3,2.242c.014,2.1.009,4.2.011,6.3,0,.032,0,.064-.008.109" transform="translate(0 0.001)" fill="#071825"/>
  </g>
</svg>
