<svg id="Gruppe_617" data-name="Gruppe 617" xmlns="http://www.w3.org/2000/svg" xmlns:xlink="http://www.w3.org/1999/xlink" width="20.078" height="18.946" viewBox="0 0 20.078 18.946">
  <defs>
    <clipPath id="clip-path">
      <rect id="Rechteck_495" data-name="Rechteck 495" width="20.078" height="18.946" fill="#ba7912"/>
    </clipPath>
  </defs>
  <g id="Gruppe_617-2" data-name="Gruppe 617" clip-path="url(#clip-path)">
    <path id="Pfad_15150" data-name="Pfad 15150" d="M20.078,13.148c-.077.416-.126.84-.238,1.247A6.174,6.174,0,0,1,13.5,18.907,5.963,5.963,0,0,1,10.22,17.7a.255.255,0,0,0-.366-.007,5.967,5.967,0,0,1-6.6.486A5.844,5.844,0,0,1,.069,13.639,6.122,6.122,0,0,1,3.714,7.081a.245.245,0,0,0,.176-.3A6.022,6.022,0,0,1,5.836,1.659,5.936,5.936,0,0,1,10.8.052a6.144,6.144,0,0,1,5.238,4.668,5.927,5.927,0,0,1,.138,2.1.2.2,0,0,0,.145.246,6.083,6.083,0,0,1,3.43,3.716,11.4,11.4,0,0,1,.288,1.277l.041.187v.9M4.061,7.773A5.393,5.393,0,1,0,9.434,17.02c-.02-.025-.039-.051-.06-.075A6.093,6.093,0,0,1,7.759,12.1c.014-.151-.048-.2-.17-.253a6.153,6.153,0,0,1-2.7-2.254,6.254,6.254,0,0,1-.828-1.819m6.559,9.249A5.393,5.393,0,1,0,16.008,7.78l-.08.24a6.109,6.109,0,0,1-3.411,3.8.3.3,0,0,0-.2.367,5.985,5.985,0,0,1-.485,3.021,6.211,6.211,0,0,1-1.21,1.81M4.644,6.746c.087-.016.144-.025.2-.036A6.065,6.065,0,0,1,9.836,7.785a.278.278,0,0,0,.4,0,6.01,6.01,0,0,1,4.18-1.189c.329.027.655.088,1.008.137a5.264,5.264,0,0,0-2.407-5.042A5.118,5.118,0,0,0,7.031,1.7,5.275,5.275,0,0,0,4.644,6.746m3.279,4.41A6.274,6.274,0,0,1,9.442,8.465,5.266,5.266,0,0,0,4.8,7.531a5.47,5.47,0,0,0,3.124,3.626m4.221,0a5.481,5.481,0,0,0,3.13-3.645,5.444,5.444,0,0,0-4.664.938,6.314,6.314,0,0,1,1.534,2.707m-.6,1.014a6.208,6.208,0,0,1-3,.006,5.258,5.258,0,0,0,1.51,4.326,5.408,5.408,0,0,0,1.491-4.332m-1.512-3.2A5.376,5.376,0,0,0,8.662,11.4a4.955,4.955,0,0,0,2.74-.017,5.433,5.433,0,0,0-1.368-2.413" transform="translate(0 0)" fill="#ba7912"/>
  </g>
</svg>
