<svg xmlns="http://www.w3.org/2000/svg" xmlns:xlink="http://www.w3.org/1999/xlink" width="23.203" height="23.204" viewBox="0 0 23.203 23.204">
  <defs>
    <clipPath id="clip-path">
      <rect id="Rechteck_395" data-name="Rechteck 395" width="23.203" height="23.204" transform="translate(0 0)" fill="none"/>
    </clipPath>
  </defs>
  <g id="Gruppe_608" data-name="Gruppe 608" transform="translate(0 0)">
    <g id="Gruppe_512" data-name="Gruppe 512" clip-path="url(#clip-path)">
      <path id="Pfad_7099" data-name="Pfad 7099" d="M22.753,1.087a.45.45,0,0,0,.45-.45V.45a.451.451,0,0,0-.45-.45H21.544a.45.45,0,0,0-.449.45V.637a.449.449,0,0,0,.449.45h.062v17.4h-.062a.449.449,0,0,0-.449.449v.188a.449.449,0,0,0,.449.449h1.209a.45.45,0,0,0,.45-.449v-.188a.45.45,0,0,0-.45-.449h-.062V1.087Z" fill="#ba7912"/>
      <path id="Pfad_7100" data-name="Pfad 7100" d="M1.087,21.546a.45.45,0,0,0-.45-.45H.45a.451.451,0,0,0-.45.45v1.209a.45.45,0,0,0,.45.449H.637a.449.449,0,0,0,.45-.449v-.062h17.4v.062a.449.449,0,0,0,.449.449h.188a.449.449,0,0,0,.449-.449V21.546a.45.45,0,0,0-.449-.45h-.188a.45.45,0,0,0-.449.45v.062H1.087Z" fill="#ba7912"/>
      <path id="Pfad_7101" data-name="Pfad 7101" d="M19.521.734A1.049,1.049,0,0,0,18.488,0H1.079a.309.309,0,0,0-.043,0A1.057,1.057,0,0,0,0,1.08V18.534a1.057,1.057,0,0,0,1.072,1.042H18.528a1.056,1.056,0,0,0,1.045-1.067V1.066a1.174,1.174,0,0,0-.052-.332M1.232,1.225h17.11v17.12H1.232Z" fill="#ba7912"/>
    </g>
  </g>
</svg>
