<svg id="Gruppe_609" data-name="Gruppe 609" xmlns="http://www.w3.org/2000/svg" xmlns:xlink="http://www.w3.org/1999/xlink" width="23.161" height="23.166" viewBox="0 0 23.161 23.166">
  <defs>
    <clipPath id="clip-path">
      <rect id="Rechteck_363" data-name="Rechteck 363" width="23.161" height="23.166" fill="#ba7912"/>
    </clipPath>
  </defs>
  <g id="Gruppe_436" data-name="Gruppe 436" clip-path="url(#clip-path)">
    <path id="Pfad_7072" data-name="Pfad 7072" d="M23.161,22.853a.679.679,0,0,1-.691.313q-9.171,0-18.343,0H.735c-.618,0-.735-.114-.735-.721Q0,11.576,0,.708C0,.123.119,0,.694,0Q11.589,0,22.483,0c.289,0,.544.029.678.328ZM.944,14.822h.31q2.32,0,4.64,0c.418,0,.6.158.594.529A5.94,5.94,0,0,1,3,20.735a18.839,18.839,0,0,1-2.069.655,4.42,4.42,0,0,1,0,.517c-.027.256.054.337.323.336,3.184-.009,6.367-.006,9.551-.006h.32v-.349q0-3.649,0-7.3c0-.567.122-.691.679-.692h3.012c.011-.19.01-.353.032-.512a.429.429,0,0,1,.453-.408.409.409,0,0,1,.442.415q.023.962,0,1.925a.406.406,0,0,1-.431.426.429.429,0,0,1-.469-.42c-.02-.158-.02-.319-.029-.482H12.054v7.376h10.16v-7.38h-2.76a4.524,4.524,0,0,1,0,.468.438.438,0,0,1-.483.438.419.419,0,0,1-.428-.461q-.014-.922,0-1.845a.423.423,0,0,1,.43-.46.446.446,0,0,1,.481.443,4.586,4.586,0,0,1,0,.463h2.762V6.5H20.385c0,.156.01.3,0,.441a.439.439,0,0,1-.489.46.428.428,0,0,1-.43-.486q-.01-.9,0-1.791a.433.433,0,0,1,.435-.484.45.45,0,0,1,.484.47c.011.14,0,.282,0,.423h1.832V.942H14.388v4.6h1.347c.012-.181.017-.343.033-.5a.41.41,0,0,1,.437-.392.4.4,0,0,1,.452.4q.026.988,0,1.978a.387.387,0,0,1-.439.382.405.405,0,0,1-.444-.38c-.024-.168-.026-.338-.04-.537-.564,0-1.114,0-1.664,0-.5,0-.626-.127-.627-.625q0-2.306,0-4.613v-.3H9.288v2.76c.156,0,.292-.009.426,0a.455.455,0,0,1,.473.481.432.432,0,0,1-.484.436q-.9.013-1.791,0c-.321,0-.491-.173-.492-.454s.169-.443.489-.465c.139-.01.28,0,.409,0V.945H.945V11.1H8.324V8.356c-.181-.011-.344-.01-.5-.032a.421.421,0,0,1-.4-.46.405.405,0,0,1,.422-.435q.962-.022,1.925,0a.409.409,0,0,1,.419.439.428.428,0,0,1-.4.456c-.165.023-.334.024-.516.036,0,1.018,0,2.011,0,3.005,0,.56-.123.682-.688.682H.944Zm0,5.527a5.014,5.014,0,0,0,4.581-4.584H.941Z" transform="translate(-0.001 -0.001)" fill="#ba7912"/>
  </g>
</svg>
